<svg xmlns="http://www.w3.org/2000/svg" width="144.48" height="49.672">
            <path data-name="Tracé 5609" d="M42.966 42.503h-.064c0 2.219.126 5.075.255 6.66h-7.105V5.199h7.105V19.41c0 1.332-.064 3.869-.126 5.392h.064c1.332-4.567 5.647-7.485 11.863-7.485 9.008 0 14.4 5.964 14.4 15.606 0 10.34-5.52 16.747-14.337 16.747-6.471 0-10.784-2.791-12.054-7.168Zm19.286-9.389c0-6.154-3.363-9.959-8.946-9.959-6.217 0-10.15 3.933-10.15 10.276v1.585c0 5.456 3.871 8.817 10.023 8.817 5.582 0 9.072-4.059 9.072-10.721Zm6.433-15.289h8.305l7.156 24.678h2.8l7.284-24.678h7.423L90.76 49.16H79.647L68.69 17.825Zm35.686 0h7.105V49.16h-7.105Zm9.658 22.33c0-4.758 3.363-8.5 11.737-8.5h11.608v-2.221c0-4.694-2.727-6.788-8.247-6.788-4.822 0-7.549 1.84-7.549 5.33a9.89 9.89 0 0 0 .064 1.206h-6.534a15.532 15.532 0 0 1-.126-1.84c0-6.281 5.456-10.023 14.4-10.023 9.515 0 15.1 4.5 15.1 12.75v19.1h-7.105c.126-1.523.317-4.376.317-6.915h-.064c-1.015 4.631-4.758 7.423-11.673 7.423s-11.927-3.425-11.927-9.515Zm23.345-3.616v-.572H126.4c-4.059 0-5.837 1.4-5.837 3.871 0 2.855 2.538 4.5 6.853 4.5 6.152.005 9.958-2.978 9.958-7.799ZM102.569 5.201a5.356 5.356 0 1 0 5.354-5.2 5.04 5.04 0 0 0-5.354 5.2ZM9.39 49.672l3.564-6.082c-3.3-1.194-5.958-4.2-5.958-9.325 0-6.859 4.75-9.929 9.457-9.929s9.457 3.07 9.457 9.929c0 5.125-2.653 8.131-5.956 9.325l3.564 6.082c5.283-2.39 9.389-7.583 9.389-15.407 0-11.111-8.277-16.926-16.454-16.926S-.001 23.152-.001 34.265c0 7.824 4.106 13.017 9.389 15.407Z" fill="#511e84"></path>
          </svg>