<?xml version="1.0" encoding="UTF-8"?>
<svg version="1.1" xmlns="http://www.w3.org/2000/svg" width="500" height="500">
<path d="M0 0 C3.55898193 1.46453681 5.40174151 3.3543769 7.75 6.375 C8.36359375 7.14585937 8.9771875 7.91671875 9.609375 8.7109375 C11 11 11 11 11 15 C9.68 15.33 8.36 15.66 7 16 C7 16.66 7 17.32 7 18 C4.18236593 20.81763407 2.71433365 21.94608803 -1.3125 22.25 C-2.199375 22.1675 -3.08625 22.085 -4 22 C-4.4640625 23.2065625 -4.4640625 23.2065625 -4.9375 24.4375 C-6 27 -6 27 -7 28 C-14.45864662 28.36090226 -14.45864662 28.36090226 -18 26 C-17.505 26.8971875 -17.505 26.8971875 -17 27.8125 C-16 30 -16 30 -16 33 C-20.22949995 35.41685712 -23.12335991 36.34833144 -28 36 C-28 36.99 -28 37.98 -28 39 C-28.763125 39.103125 -29.52625 39.20625 -30.3125 39.3125 C-33.242619 40.06206532 -33.97790188 40.88598833 -36 43 C-36.99 43 -37.98 43 -39 43 C-39.33 42.34 -39.66 41.68 -40 41 C-40.5259375 42.2065625 -40.5259375 42.2065625 -41.0625 43.4375 C-43 46 -43 46 -46.5625 46.875 C-50 47 -50 47 -52 46 C-52.24105469 46.63679688 -52.48210937 47.27359375 -52.73046875 47.9296875 C-54 50 -54 50 -55.98828125 50.7578125 C-57.13876953 50.93957031 -57.13876953 50.93957031 -58.3125 51.125 C-61.7801111 51.70195397 -64.76324081 52.61363589 -68 54 C-72.40774487 43.62642369 -72.40774487 43.62642369 -73 38 C-71.02 37.34 -69.04 36.68 -67 36 C-66.01 37.32 -65.02 38.64 -64 40 C-63.505 37.03 -63.505 37.03 -63 34 C-60.03 33.505 -60.03 33.505 -57 33 C-56.34 34.98 -55.68 36.96 -55 39 C-54.67 38.175 -54.34 37.35 -54 36.5 C-52 34 -52 34 -50.01953125 33.66796875 C-48.01004942 33.68575178 -46.0028436 33.83583249 -44 34 C-43.67 33.01 -43.34 32.02 -43 31 C-39.58517997 28.43888497 -37.25191465 27.63555017 -33 28 C-33 26.35 -33 24.7 -33 23 C-31.35 22.67 -29.7 22.34 -28 22 C-28 22.66 -28 23.32 -28 24 C-27.34 24 -26.68 24 -26 24 C-26 23.34 -26 22.68 -26 22 C-22.04 20.515 -22.04 20.515 -18 19 C-17.67 16.69 -17.34 14.38 -17 12 C-15.35 11.67 -13.7 11.34 -12 11 C-12.33 12.32 -12.66 13.64 -13 15 C-11.02 15.33 -9.04 15.66 -7 16 C-7.0825 15.236875 -7.165 14.47375 -7.25 13.6875 C-7 11 -7 11 -5.1875 9.25 C-3 8 -3 8 0 7 C-0.99 6.01 -0.99 6.01 -2 5 C-1.46428571 1.46428571 -1.46428571 1.46428571 0 0 Z M-6 17 C-5 19 -5 19 -5 19 Z M-25 27 C-24.67 28.32 -24.34 29.64 -24 31 C-23.34 30.67 -22.68 30.34 -22 30 C-22.99 29.01 -23.98 28.02 -25 27 Z M-31 30 C-30 32 -30 32 -30 32 Z M-30 32 C-29 34 -29 34 -29 34 Z M-37 34 C-36.34 35.65 -35.68 37.3 -35 39 C-34.67 38.01 -34.34 37.02 -34 36 C-34.33 35.34 -34.66 34.68 -35 34 C-35.66 34 -36.32 34 -37 34 Z M-29 34 C-28 36 -28 36 -28 36 Z M-49 38 C-48.67 39.32 -48.34 40.64 -48 42 C-47.34 42 -46.68 42 -46 42 C-46.33 40.68 -46.66 39.36 -47 38 C-47.66 38 -48.32 38 -49 38 Z " fill="#963D8C" transform="translate(379,417)"/>
<path d="M0 0 C4 6.5 4 6.5 4 11 C0.36576791 13.32590854 -2.77088331 13.16265833 -7 13 C-7 13.99 -7 14.98 -7 16 C-8.65 16.33 -10.3 16.66 -12 17 C-12.66 15.02 -13.32 13.04 -14 11 C-14 13.83967231 -13.59732819 16.23735711 -13 19 C-14.65 19.33 -16.3 19.66 -18 20 C-18.495 19.01 -18.495 19.01 -19 18 C-19.309375 18.969375 -19.61875 19.93875 -19.9375 20.9375 C-21 24 -21 24 -22 25 C-24.67058851 25.14115161 -27.32432238 25.04247107 -30 25 C-30.495 27.475 -30.495 27.475 -31 30 C-32.32 30 -33.64 30 -35 30 C-35 30.99 -35 31.98 -35 33 C-37.75 33.75 -37.75 33.75 -41 34 C-43.375 32.0625 -43.375 32.0625 -45 30 C-43.68 31.65 -42.36 33.3 -41 35 C-41.66 36.32 -42.32 37.64 -43 39 C-43.66 39 -44.32 39 -45 39 C-45 39.66 -45 40.32 -45 41 C-48.465 41.495 -48.465 41.495 -52 42 C-52.0825 42.94875 -52.165 43.8975 -52.25 44.875 C-53 48 -53 48 -54.6875 49.4375 C-57.75926387 50.18468581 -59.9587844 49.79336059 -63 49 C-65 47 -65 47 -65.265625 45.125 C-65.26046875 44.42375 -65.2553125 43.7225 -65.25 43 C-65.25515625 42.29875 -65.2603125 41.5975 -65.265625 40.875 C-65 39 -65 39 -63 37 C-59.375 36.875 -59.375 36.875 -56 37 C-55.67 37.99 -55.34 38.98 -55 40 C-54.34 40 -53.68 40 -53 40 C-53 39.01 -53 38.02 -53 37 C-53.99 36.67 -54.98 36.34 -56 36 C-55.6875 33.125 -55.6875 33.125 -55 30 C-52.38058783 28.25372522 -50.96175123 27.61277612 -48 27 C-48 25.02 -48 23.04 -48 21 C-45.39417629 20.06934867 -44.35801776 19.85082593 -41.75 20.9375 C-40.88375 21.4634375 -40.88375 21.4634375 -40 22 C-40.66 21.01 -41.32 20.02 -42 19 C-41.625 16.8125 -41.625 16.8125 -41 15 C-39.68 15 -38.36 15 -37 15 C-35.25 17.5 -35.25 17.5 -34 20 C-33.649375 18.865625 -33.29875 17.73125 -32.9375 16.5625 C-32.125 14.625 -32.125 14.625 -31 13 C-27.8261084 12.16476537 -25.24986634 12 -22 12 C-22 10.68 -22 9.36 -22 8 C-19.4723796 5.97790368 -17.56767914 5.09461319 -14.375 4.5625 C-12 5 -12 5 -10.1875 7 C-9.5996875 7.99 -9.5996875 7.99 -9 9 C-9.061875 7.88625 -9.12375 6.7725 -9.1875 5.625 C-9.0946875 3.830625 -9.0946875 3.830625 -9 2 C-5.5647952 -0.29013653 -4.014669 -0.17842973 0 0 Z M-28 17 C-27.67 18.32 -27.34 19.64 -27 21 C-26.34 21 -25.68 21 -25 21 C-25.33 19.68 -25.66 18.36 -26 17 C-26.66 17 -27.32 17 -28 17 Z M-40 22 C-40 23.65 -40 25.3 -40 27 C-38.68 27.33 -37.36 27.66 -36 28 C-36.99 26.02 -37.98 24.04 -39 22 C-39.33 22 -39.66 22 -40 22 Z M-60 41 C-60 41.99 -60 42.98 -60 44 C-59.01 44 -58.02 44 -57 44 C-57 43.01 -57 42.02 -57 41 C-57.99 41 -58.98 41 -60 41 Z " fill="#913387" transform="translate(163,46)"/>
<path d="M0 0 C1.65 0 3.3 0 5 0 C4.68817931 1.41681634 4.37551263 2.83344651 4.0625 4.25 C3.88847656 5.03890625 3.71445313 5.8278125 3.53515625 6.640625 C3.052444 8.76878703 2.53836822 10.88532842 2 13 C2.99 13 3.98 13 5 13 C5.13277344 12.37351562 5.26554688 11.74703125 5.40234375 11.1015625 C5.57894531 10.28429687 5.75554687 9.46703125 5.9375 8.625 C6.11152344 7.81289063 6.28554687 7.00078125 6.46484375 6.1640625 C7 4 7 4 8 2 C9.65 2.33 11.3 2.66 13 3 C12.67 4.65 12.34 6.3 12 8 C12.62648437 8.04898437 13.25296875 8.09796875 13.8984375 8.1484375 C14.71570313 8.22320312 15.53296875 8.29796875 16.375 8.375 C17.18710938 8.44460938 17.99921875 8.51421875 18.8359375 8.5859375 C21 9 21 9 23 11 C23.66 9.68 24.32 8.36 25 7 C26.65 7 28.3 7 30 7 C29.67 8.65 29.34 10.3 29 12 C30.65 12 32.3 12 34 12 C34.495 12.99 34.495 12.99 35 14 C35.33 13.67 35.66 13.34 36 13 C38.5 12.875 38.5 12.875 41 13 C41.495 13.495 41.495 13.495 42 14 C43.7015625 13.9690625 43.7015625 13.9690625 45.4375 13.9375 C49 14 49 14 51 16 C51.33 15.67 51.66 15.34 52 15 C54.47163686 14.87317377 56.90290611 14.81479749 59.375 14.8125 C60.06078125 14.80025391 60.7465625 14.78800781 61.453125 14.77539062 C65.19296797 14.76447669 66.8099737 14.8733158 70 17 C70.36328125 19.09375 70.36328125 19.09375 70.3125 21.5 C70.30863281 22.2940625 70.30476563 23.088125 70.30078125 23.90625 C70 26 70 26 68 28 C64.5 28.25 64.5 28.25 61 28 C59 26 59 26 58.875 22.875 C58.91625 21.92625 58.9575 20.9775 59 20 C58.01 20.495 58.01 20.495 57 21 C56.26924352 23.3140622 55.59861742 25.64828869 55 28 C53.0625 27.625 53.0625 27.625 51 27 C50.505 26.01 50.505 26.01 50 25 C49.34 25.66 48.68 26.32 48 27 C42.80184332 27.55299539 42.80184332 27.55299539 40.1875 25.75 C38.88741278 23.83408198 38.39143023 22.27029534 38 20 C37.01 21.65 36.02 23.3 35 25 C33.35 24.67 31.7 24.34 30 24 C29.505 21.03 29.505 21.03 29 18 C28.01 20.475 28.01 20.475 27 23 C25.33388095 23.042721 23.66617115 23.04063832 22 23 C21.67 22.67 21.34 22.34 21 22 C19.33382885 21.95936168 17.66611905 21.957279 16 22 C16 20.02 16 18.04 16 16 C15.01 17.65 14.02 19.3 13 21 C12.01 20.67 11.02 20.34 10 20 C9.67 19.01 9.34 18.02 9 17 C8.34 17.33 7.68 17.66 7 18 C3.80799279 18.27756584 1.5929092 18.24964598 -1.375 17 C-3.45528179 14.43965319 -3.48978217 12.37929486 -3.33984375 9.140625 C-2.80243259 5.75555239 -1.52927616 3.05855233 0 0 Z M11 9 C12 11 12 11 12 11 Z M10 12 C11 15 11 15 11 15 Z M22 15 C23 18 23 18 23 18 Z " fill="#903386" transform="translate(179,451)"/>
<path d="M0 0 C0 2.1875 0 2.1875 -1 5 C-3.50803179 6.96188534 -6.19641043 8.49921743 -9 10 C-7.68 10.33 -6.36 10.66 -5 11 C-5 10.01 -5 9.02 -5 8 C-3.68 7.67 -2.36 7.34 -1 7 C3 13.625 3 13.625 3 17 C0.69 17.33 -1.62 17.66 -4 18 C-4 18.66 -4 19.32 -4 20 C-1.03 19.67 1.94 19.34 5 19 C7.4294516 22.6441774 7.16179575 24.71241272 7 29 C8.98 29 10.96 29 13 29 C13.33 30.65 13.66 32.3 14 34 C13.34 34 12.68 34 12 34 C12 34.99 12 35.98 12 37 C10.2984375 37.185625 10.2984375 37.185625 8.5625 37.375 C7.386875 37.58125 6.21125 37.7875 5 38 C4.67 38.66 4.34 39.32 4 40 C5.15628906 39.566875 5.15628906 39.566875 6.3359375 39.125 C7.33882813 38.75375 8.34171875 38.3825 9.375 38 C10.37273437 37.62875 11.37046875 37.2575 12.3984375 36.875 C15 36 15 36 17 36 C17.495 38.475 17.495 38.475 18 41 C15.69 41.99 13.38 42.98 11 44 C11.804375 44.309375 12.60875 44.61875 13.4375 44.9375 C16 46 16 46 17 47 C17.27314815 52.73611111 17.27314815 52.73611111 17 55 C16.34 55.66 15.68 56.32 15 57 C16.65 57 18.3 57 20 57 C20.495 62.445 20.495 62.445 21 68 C13.71428571 71.57142857 13.71428571 71.57142857 9 70 C9 68.68 9 67.36 9 66 C12.465 65.505 12.465 65.505 16 65 C15.505 64.505 15.505 64.505 15 64 C12.66055264 64.28730055 10.3260857 64.61936779 8 65 C7.67 63.35 7.34 61.7 7 60 C8.485 59.505 8.485 59.505 10 59 C8.7934375 58.4740625 8.7934375 58.4740625 7.5625 57.9375 C5 56 5 56 4.125 52.5 C4 49 4 49 5 46 C4.01 46 3.02 46 2 46 C-1.42857143 38.71428571 -1.42857143 38.71428571 -1 34 C0.98 33.01 2.96 32.02 5 31 C4.4225 31.144375 3.845 31.28875 3.25 31.4375 C1.16666667 31.95833333 -0.91666667 32.47916667 -3 33 C-5.70582788 29.16674383 -6.32613618 26.67461851 -6 22 C-6.8971875 21.690625 -6.8971875 21.690625 -7.8125 21.375 C-10.8383427 19.47304173 -11.64708502 17.24699596 -13 14 C-13 13.34 -13 12.68 -13 12 C-14.45833358 10.37485532 -14.45833358 10.37485532 -16 9 C-14.65166602 4.95499806 -12.76735567 4.36378914 -9.125 2.25 C-8.05507813 1.61578125 -6.98515625 0.9815625 -5.8828125 0.328125 C-3 -1 -3 -1 0 0 Z M9 50 C9 50.99 9 51.98 9 53 C10.32 52.67 11.64 52.34 13 52 C13 51.34 13 50.68 13 50 C11.68 50 10.36 50 9 50 Z " fill="#8F3186" transform="translate(447,133)"/>
<path d="M0 0 C5.36774933 22.18669721 5.36774933 22.18669721 5 31 C4 32 4 32 0.77734375 32.40625 C-3.29236415 31.96855649 -4.53226373 31.14397423 -7.16992188 28.08984375 C-7.58822266 27.56519531 -8.00652344 27.04054688 -8.4375 26.5 C-9.10555664 25.71302734 -9.10555664 25.71302734 -9.78710938 24.91015625 C-10.876252 23.62192304 -11.94072585 22.31290317 -13 21 C-12.91621094 21.92683594 -12.83242187 22.85367187 -12.74609375 23.80859375 C-12.64425781 25.00613281 -12.54242188 26.20367187 -12.4375 27.4375 C-12.33308594 28.63246094 -12.22867188 29.82742188 -12.12109375 31.05859375 C-12.08113281 32.02925781 -12.04117188 32.99992187 -12 34 C-13 35 -13 35 -16.5625 35.0625 C-17.696875 35.041875 -18.83125 35.02125 -20 35 C-24.5691466 13.39260417 -24.5691466 13.39260417 -25 4 C-22.04276064 3.26387684 -19.98303425 2.75253762 -17 3 C-14.44178288 4.71852518 -12.80145708 6.9636681 -11 9.4375 C-10.51144531 10.06205078 -10.02289063 10.68660156 -9.51953125 11.33007812 C-8.32201079 12.86807008 -7.15758399 14.43172904 -6 16 C-6.66 11.05 -7.32 6.1 -8 1 C-2 0 -2 0 0 0 Z " fill="#8B2781" transform="translate(185,273)"/>
<path d="M0 0 C0.67659781 3.68574858 1.33947761 7.37383949 2 11.0625 C2.19078125 12.10083984 2.3815625 13.13917969 2.578125 14.20898438 C3.52850018 19.55484477 4.24648667 24.56959064 4 30 C1.08736034 31.45631983 -0.76737158 31.40899435 -4 31 C-6.09098782 29.18584719 -7.65814611 27.61105599 -9.375 25.5 C-9.82488281 24.97535156 -10.27476562 24.45070312 -10.73828125 23.91015625 C-11.84095072 22.61979836 -12.92264253 21.31156561 -14 20 C-13.67 24.29 -13.34 28.58 -13 33 C-15.70879335 34.35439668 -18.00933268 34.06501451 -21 34 C-21.83919128 29.58442544 -22.6703408 25.16737466 -23.5 20.75 C-23.73847656 19.49574219 -23.97695312 18.24148437 -24.22265625 16.94921875 C-24.56103516 15.14130859 -24.56103516 15.14130859 -24.90625 13.296875 C-25.11572266 12.18666992 -25.32519531 11.07646484 -25.54101562 9.93261719 C-26 7 -26 7 -26 3 C-23.07418973 2.29692275 -20.9533026 1.79772814 -18 2 C-15.47808723 3.55435443 -13.82094176 5.62669926 -12 7.9375 C-11.51144531 8.51435547 -11.02289063 9.09121094 -10.51953125 9.68554688 C-9.3233128 11.10459033 -8.15837596 12.54990068 -7 14 C-7.33 9.38 -7.66 4.76 -8 0 C-4.29847322 -0.92538169 -3.36541838 -1.08174162 0 0 Z " fill="#8C2981" transform="translate(198,155)"/>
<path d="M0 0 C0.83919128 4.41557456 1.6703408 8.83262534 2.5 13.25 C2.73847656 14.50425781 2.97695312 15.75851562 3.22265625 17.05078125 C3.44824219 18.25605469 3.67382812 19.46132813 3.90625 20.703125 C4.11572266 21.81333008 4.32519531 22.92353516 4.54101562 24.06738281 C5 27 5 27 5 31 C2.07418973 31.70307725 -0.0466974 32.20227186 -3 32 C-5.52191277 30.44564557 -7.17905824 28.37330074 -9 26.0625 C-9.48855469 25.48564453 -9.97710937 24.90878906 -10.48046875 24.31445312 C-11.6766872 22.89540967 -12.84162404 21.45009932 -14 20 C-13.83628906 20.89976562 -13.67257813 21.79953125 -13.50390625 22.7265625 C-12.91170145 26.57359835 -12.93301406 30.11481548 -13 34 C-16.465 34.495 -16.465 34.495 -20 35 C-21.55265195 29.8694979 -22.69974581 24.77772542 -23.625 19.5 C-23.7590625 18.77941406 -23.893125 18.05882812 -24.03125 17.31640625 C-24.83066468 12.80542343 -25.13259377 8.58051191 -25 4 C-22.08736034 2.54368017 -20.23262842 2.59100565 -17 3 C-14.90901218 4.81415281 -13.34185389 6.38894401 -11.625 8.5 C-11.17511719 9.02464844 -10.72523438 9.54929687 -10.26171875 10.08984375 C-9.15904928 11.38020164 -8.07735747 12.68843439 -7 14 C-7.495 7.565 -7.495 7.565 -8 1 C-5.29120665 -0.35439668 -2.99066732 -0.06501451 0 0 Z " fill="#8C2A82" transform="translate(213,328)"/>
<path d="M0 0 C2.65670602 2.59713862 2.54891972 5.09545973 2.7421875 8.703125 C2.4121875 9.693125 2.0821875 10.683125 1.7421875 11.703125 C2.3815625 12.445625 3.0209375 13.188125 3.6796875 13.953125 C5.7421875 16.703125 5.7421875 16.703125 6.3046875 20.203125 C5.58350163 24.69050374 4.21452649 25.83832849 0.7421875 28.703125 C-2.6328125 29.84765625 -2.6328125 29.84765625 -6.2578125 30.515625 C-8.0521875 30.86560547 -8.0521875 30.86560547 -9.8828125 31.22265625 C-12.74467322 31.63007392 -15.37635613 31.80681377 -18.2578125 31.703125 C-18.91202432 28.57982047 -19.55457409 25.45421898 -20.1953125 22.328125 C-20.37771484 21.45800781 -20.56011719 20.58789062 -20.74804688 19.69140625 C-21.966235 13.71120998 -22.7674174 7.78598907 -23.2578125 1.703125 C-16.37884656 -0.69651428 -6.81833386 -3.91641322 0 0 Z M-14.2578125 6.703125 C-13.9278125 8.353125 -13.5978125 10.003125 -13.2578125 11.703125 C-10.6178125 11.043125 -7.9778125 10.383125 -5.2578125 9.703125 C-5.5878125 8.383125 -5.9178125 7.063125 -6.2578125 5.703125 C-10.39874948 5.49341941 -10.39874948 5.49341941 -14.2578125 6.703125 Z M-12.2578125 17.703125 C-11.9278125 19.683125 -11.5978125 21.663125 -11.2578125 23.703125 C-7.82550802 23.43918999 -7.82550802 23.43918999 -4.2578125 22.703125 C-3.5978125 21.713125 -2.9378125 20.723125 -2.2578125 19.703125 C-2.9178125 18.713125 -3.5778125 17.723125 -4.2578125 16.703125 C-7.36275376 16.38466949 -9.27507327 16.70887859 -12.2578125 17.703125 Z " fill="#8A267F" transform="translate(291.2578125,257.296875)"/>
<path d="M0 0 C5.3980611 22.63586957 5.3980611 22.63586957 5 30 C2.08736034 31.45631983 0.23262842 31.40899435 -3 31 C-5.09098782 29.18584719 -6.65814611 27.61105599 -8.375 25.5 C-8.82488281 24.97535156 -9.27476562 24.45070313 -9.73828125 23.91015625 C-10.84095072 22.61979836 -11.92264253 21.31156561 -13 20 C-12.67 24.29 -12.34 28.58 -12 33 C-14.70879335 34.35439668 -17.00933268 34.06501451 -20 34 C-20.65421182 30.87669547 -21.29676159 27.75109398 -21.9375 24.625 C-22.11990234 23.75488281 -22.30230469 22.88476562 -22.49023438 21.98828125 C-23.7084225 16.00808498 -24.5096049 10.08286407 -25 4 C-22.07418973 3.29692275 -19.9533026 2.79772814 -17 3 C-14.47808723 4.55435443 -12.82094176 6.62669926 -11 8.9375 C-10.51144531 9.51435547 -10.02289063 10.09121094 -9.51953125 10.68554688 C-8.3233128 12.10459033 -7.15837596 13.54990068 -6 15 C-6.66 10.38 -7.32 5.76 -8 1 C-3 0 -3 0 0 0 Z " fill="#87207C" transform="translate(355,244)"/>
<path d="M0 0 C4.13582949 2.81988374 6.18164671 6.16994012 7.75 10.875 C8.25976619 16.1982961 8.42052598 20.53394804 6 25.375 C1.67400359 30.18166268 -1.24155279 31.65215206 -7.625 32.125 C-12.91691202 31.76004055 -15.96523023 30.26394029 -19.5625 26.375 C-22.25533753 22.38561106 -22.43521288 19.21866165 -22.5 14.5 C-22.52578125 13.37851563 -22.5515625 12.25703125 -22.578125 11.1015625 C-22.21219059 7.50320746 -21.44158613 5.72555963 -19.25 2.875 C-13.34737676 -1.69266189 -6.99692578 -2.42201277 0 0 Z M-11.9375 7.9375 C-14.50847491 10.71624041 -14.50847491 10.71624041 -14.8125 14.3125 C-14.14850993 18.51777047 -13.05901867 20.68638422 -10.25 23.875 C-7.87822118 25.28302691 -7.87822118 25.28302691 -5.25 24.875 C-2.16911456 23.1289921 -2.16911456 23.1289921 -0.25 19.875 C0.35544244 14.94242481 -0.59333419 11.72175328 -3.625 7.8125 C-7.26145998 5.1284462 -8.35426928 5.18757875 -11.9375 7.9375 Z " fill="#8C2982" transform="translate(320.25,134.125)"/>
<path d="M0 0 C1.99308214 1.53738899 2.85525856 2.51817614 3.58203125 4.9375 C3.65808594 5.618125 3.73414063 6.29875 3.8125 7 C3.90144531 7.680625 3.99039062 8.36125 4.08203125 9.0625 C4 11 4 11 2 14 C2.680625 14.7734375 2.680625 14.7734375 3.375 15.5625 C6.20380072 19.80570108 7 23.95303684 7 29 C4.69 29.33 2.38 29.66 0 30 C-0.24234375 29.36191406 -0.4846875 28.72382813 -0.734375 28.06640625 C-1.06953125 27.24011719 -1.4046875 26.41382813 -1.75 25.5625 C-2.23726563 24.32693359 -2.23726563 24.32693359 -2.734375 23.06640625 C-3.80852231 20.8514548 -3.80852231 20.8514548 -5.953125 20.21484375 C-8.15424842 19.94780581 -8.15424842 19.94780581 -11 20 C-10.835 20.495 -10.67 20.99 -10.5 21.5 C-9.79311182 25.03444089 -9.93994845 28.39690701 -10 32 C-12.875 32.625 -12.875 32.625 -16 33 C-18.37252712 30.62747288 -18.48104884 29.48890137 -19.0703125 26.23828125 C-19.24433594 25.28373047 -19.41835938 24.32917969 -19.59765625 23.34570312 C-19.77167969 22.34474609 -19.94570313 21.34378906 -20.125 20.3125 C-20.39763672 18.84006836 -20.39763672 18.84006836 -20.67578125 17.33789062 C-21.60209827 12.14563997 -22.2212514 7.27315834 -22 2 C-14.35207398 -0.0922456 -7.8333467 -1.76882022 0 0 Z M-13 7 C-13 8.98 -13 10.96 -13 13 C-9.56206661 12.81870185 -9.56206661 12.81870185 -6 12 C-4.48705712 10.06402968 -4.48705712 10.06402968 -4 8 C-7.35080929 5.89023119 -9.22102349 5.9502843 -13 7 Z " fill="#8B2881" transform="translate(304,196)"/>
<path d="M0 0 C0.94875 0.04125 1.8975 0.0825 2.875 0.125 C2.875 0.785 2.875 1.445 2.875 2.125 C5.35 2.62 5.35 2.62 7.875 3.125 C8.125 8.75 8.125 8.75 5.875 12.125 C4.885 12.785 3.895 13.445 2.875 14.125 C2.15117533 16.18425139 2.15117533 16.18425139 1.875 18.125 C-0.435 17.795 -2.745 17.465 -5.125 17.125 C-3.805 17.785 -2.485 18.445 -1.125 19.125 C-1.125 20.775 -1.125 22.425 -1.125 24.125 C-2.775 24.125 -4.425 24.125 -6.125 24.125 C-5.795 24.455 -5.465 24.785 -5.125 25.125 C-4.65833333 31.425 -4.65833333 31.425 -6.375 34 C-8.28843698 35.23006663 -9.89211635 35.74002006 -12.125 36.125 C-10.64 36.62 -10.64 36.62 -9.125 37.125 C-9.5 39.5625 -9.5 39.5625 -10.125 42.125 C-11.115 42.62 -11.115 42.62 -12.125 43.125 C-12.78055119 45.65233235 -12.78055119 45.65233235 -13.125 48.125 C-16.94256824 49.49932457 -20.19755329 48.80475039 -24.125 48.125 C-24.62 46.64 -24.62 46.64 -25.125 45.125 C-26.115 44.795 -27.105 44.465 -28.125 44.125 C-27.9375 42.25 -27.9375 42.25 -27.125 40.125 C-24.5625 38.875 -24.5625 38.875 -22.125 38.125 C-23.445 37.465 -24.765 36.805 -26.125 36.125 C-25.795 34.805 -25.465 33.485 -25.125 32.125 C-22.485 32.455 -19.845 32.785 -17.125 33.125 C-17.455 32.795 -17.785 32.465 -18.125 32.125 C-18.59166667 25.825 -18.59166667 25.825 -16.875 23.25 C-14.96156302 22.01993337 -13.35788365 21.50997994 -11.125 21.125 C-11.785 20.795 -12.445 20.465 -13.125 20.125 C-12.56124605 16.17872236 -11.52889944 13.33019925 -9.125 10.125 C-6.9375 9.3125 -6.9375 9.3125 -5.125 9.125 C-5.16625 8.01125 -5.2075 6.8975 -5.25 5.75 C-5.09146151 1.15238393 -4.65510388 0.18620416 0 0 Z M-4.125 10.125 C-2.64 11.115 -2.64 11.115 -1.125 12.125 C-1.125 11.465 -1.125 10.805 -1.125 10.125 C-2.115 10.125 -3.105 10.125 -4.125 10.125 Z M-13.125 27.125 C-12.795 28.115 -12.465 29.105 -12.125 30.125 C-11.465 30.125 -10.805 30.125 -10.125 30.125 C-10.455 29.135 -10.785 28.145 -11.125 27.125 C-11.785 27.125 -12.445 27.125 -13.125 27.125 Z M-21.125 39.125 C-20.795 40.115 -20.465 41.105 -20.125 42.125 C-18.475 42.455 -16.825 42.785 -15.125 43.125 C-14.795 42.465 -14.465 41.805 -14.125 41.125 C-16.77238916 39.6643715 -18.01948334 39.125 -21.125 39.125 Z " fill="#923789" transform="translate(65.125,127.875)"/>
<path d="M0 0 C4.13471132 3.75882847 6.33097585 7.44912755 7.09765625 13.03125 C7.27684985 18.20449129 6.81743496 22.16328161 3.75 26.5 C-1.55895577 31.00456853 -9.51103369 31.65644029 -16.25 31.5 C-21.62587413 8.95716783 -21.62587413 8.95716783 -21.25 0.5 C-6.33394161 -2.92335766 -6.33394161 -2.92335766 0 0 Z M-12.25 6.5 C-11.79775239 12.41492272 -11.0917395 17.85199888 -9.25 23.5 C-5.83465541 22.66513799 -3.69654501 21.94654501 -1.1875 19.4375 C0.05601809 15.54114333 -0.6453098 13.22313338 -2.08984375 9.46484375 C-3.20472598 7.19147626 -3.20472598 7.19147626 -6.25 5.875 C-9.29494328 5.2752836 -9.29494328 5.2752836 -12.25 6.5 Z " fill="#87217C" transform="translate(241.25,325.5)"/>
<path d="M0 0 C0.33 2.31 0.66 4.62 1 7 C-0.56116819 7.33951619 -2.12401338 7.67132544 -3.6875 8 C-4.99267578 8.2784375 -4.99267578 8.2784375 -6.32421875 8.5625 C-8.93712964 8.98972047 -11.35813038 9.07616201 -14 9 C-14 10.32 -14 11.64 -14 13 C-13.00097656 12.91621094 -12.00195312 12.83242188 -10.97265625 12.74609375 C-9.03712891 12.59333984 -9.03712891 12.59333984 -7.0625 12.4375 C-5.77472656 12.33308594 -4.48695313 12.22867187 -3.16015625 12.12109375 C-2.11730469 12.08113281 -1.07445312 12.04117187 0 12 C1 13 1 13 1.0625 15.5625 C1.041875 16.366875 1.02125 17.17125 1 18 C-2.99000166 19.42500059 -6.80530429 20.40075776 -11 21 C-11 22.65 -11 24.3 -11 26 C-10.43152344 25.855625 -9.86304688 25.71125 -9.27734375 25.5625 C-4.37737795 24.38454495 -0.0354688 23.78572473 5 24 C5 26.31 5 28.62 5 31 C2.48056604 31.50812114 -0.04016873 32.00664534 -2.5625 32.5 C-3.26697266 32.64308594 -3.97144531 32.78617187 -4.69726562 32.93359375 C-9.21890238 33.80874925 -13.39487028 34.14523405 -18 34 C-19.4386442 28.46434733 -20.63837917 22.94529955 -21.625 17.3125 C-21.7590625 16.57966797 -21.893125 15.84683594 -22.03125 15.09179688 C-22.69177981 11.35441136 -23.16477975 7.79742427 -23 4 C-15.77504014 1.19029339 -7.74847883 -0.19904349 0 0 Z " fill="#8C2A82" transform="translate(393,296)"/>
<path d="M0 0 C2.88662199 2.80414707 3.16418014 3.4837039 3.3125 7.5625 C3.1875 11.125 3.1875 11.125 2.1875 14.125 C2.620625 14.82625 3.05375 15.5275 3.5 16.25 C5.72742244 20.04486787 6.39286664 23.83397985 7.1875 28.125 C3.2275 28.62 3.2275 28.62 -0.8125 29.125 C-2.1325 25.825 -3.4525 22.525 -4.8125 19.125 C-6.4625 19.125 -8.1125 19.125 -9.8125 19.125 C-9.8125 23.085 -9.8125 27.045 -9.8125 31.125 C-13.2775 31.62 -13.2775 31.62 -16.8125 32.125 C-21.3816466 10.51760417 -21.3816466 10.51760417 -21.8125 1.125 C-19.77290523 0.61661436 -17.73070862 0.11866114 -15.6875 -0.375 C-14.55054688 -0.6534375 -13.41359375 -0.931875 -12.2421875 -1.21875 C-4.1505531 -2.7670354 -4.1505531 -2.7670354 0 0 Z M-12.8125 6.125 C-12.8125 8.105 -12.8125 10.085 -12.8125 12.125 C-10.1725 11.795 -7.5325 11.465 -4.8125 11.125 C-4.8125 9.475 -4.8125 7.825 -4.8125 6.125 C-7.86513664 5.14379536 -9.75986336 5.14379536 -12.8125 6.125 Z " fill="#861E7B" transform="translate(259.8125,262.875)"/>
<path d="M0 0 C1.4386442 5.53565267 2.63837917 11.05470045 3.625 16.6875 C3.7590625 17.42033203 3.893125 18.15316406 4.03125 18.90820312 C5.42000169 26.76598695 5.42000169 26.76598695 5 30 C2 32 2 32 -3 32 C-3.66 28.04 -4.32 24.08 -5 20 C-7.97 20.33 -10.94 20.66 -14 21 C-13.649375 22.216875 -13.29875 23.43375 -12.9375 24.6875 C-12.06543648 28.12086896 -11.92296831 30.55349859 -13 34 C-16.465 34.495 -16.465 34.495 -20 35 C-20.84097414 30.77231562 -21.67144025 26.54263344 -22.5 22.3125 C-22.73847656 21.11431641 -22.97695312 19.91613281 -23.22265625 18.68164062 C-23.44824219 17.52470703 -23.67382812 16.36777344 -23.90625 15.17578125 C-24.11572266 14.11270752 -24.32519531 13.04963379 -24.54101562 11.9543457 C-24.96252805 9.24119577 -25.08856503 6.73887341 -25 4 C-22.36 3.67 -19.72 3.34 -17 3 C-16.34 6.63 -15.68 10.26 -15 14 C-10.545 13.505 -10.545 13.505 -6 13 C-6.33 11.7625 -6.66 10.525 -7 9.25 C-7.79891159 6.25408155 -8 4.19892281 -8 1 C-5.23735711 0.40267181 -2.83967231 0 0 0 Z " fill="#8B2881" transform="translate(231,207)"/>
<path d="M0 0 C2.1875 1.6875 2.1875 1.6875 4.1875 4.6875 C4.1875 6.0075 4.1875 7.3275 4.1875 8.6875 C1.5475 8.6875 -1.0925 8.6875 -3.8125 8.6875 C-3.8125 8.0275 -3.8125 7.3675 -3.8125 6.6875 C-5.7925 6.6875 -7.7725 6.6875 -9.8125 6.6875 C-10.1425 7.6775 -10.4725 8.6675 -10.8125 9.6875 C-9.84828125 9.77386719 -8.8840625 9.86023438 -7.890625 9.94921875 C-5.99570312 10.15998047 -5.99570312 10.15998047 -4.0625 10.375 C-2.18304688 10.56642578 -2.18304688 10.56642578 -0.265625 10.76171875 C3.877399 11.87246161 5.02555417 13.04155185 7.1875 16.6875 C7.951653 19.47007094 7.8407755 21.8812557 7.1875 24.6875 C4.13797546 28.81332731 1.21245918 30.73939449 -3.8125 31.6875 C-8.53346562 31.74735376 -12.45513205 31.64758952 -16.375 28.875 C-17.77229122 26.74868728 -18.45452653 25.19331432 -18.8125 22.6875 C-15.72440305 20.92287317 -14.57937864 20.6875 -10.8125 20.6875 C-10.35875 21.203125 -9.905 21.71875 -9.4375 22.25 C-8.90125 22.724375 -8.365 23.19875 -7.8125 23.6875 C-4.66328091 23.45466851 -4.66328091 23.45466851 -1.8125 22.6875 C-1.4825 21.6975 -1.1525 20.7075 -0.8125 19.6875 C-1.53695313 19.65011719 -2.26140625 19.61273438 -3.0078125 19.57421875 C-8.55110036 19.19727518 -13.06664911 18.85140059 -17.8125 15.6875 C-20.15159307 12.1788604 -20.22541057 10.81660567 -19.8125 6.6875 C-18.32878707 2.93457907 -17.11776706 1.85774509 -13.5625 -0.125 C-8.54606274 -1.71353846 -4.8504709 -2.26355309 0 0 Z " fill="#88257E" transform="translate(270.8125,319.3125)"/>
<path d="M0 0 C0 2.31 0 4.62 0 7 C-6.93 8.485 -6.93 8.485 -14 10 C-14 10.99 -14 11.98 -14 13 C-9.71 12.34 -5.42 11.68 -1 11 C-0.34 12.98 0.32 14.96 1 17 C-1.58926331 19.58926331 -3.02705279 19.37398043 -6.625 19.625 C-7.62789062 19.69976562 -8.63078125 19.77453125 -9.6640625 19.8515625 C-10.82035156 19.92503906 -10.82035156 19.92503906 -12 20 C-12 21.98 -12 23.96 -12 26 C-11.43152344 25.855625 -10.86304688 25.71125 -10.27734375 25.5625 C-5.37737795 24.38454495 -1.0354688 23.78572473 4 24 C4.33 25.98 4.66 27.96 5 30 C-2.901219 32.98965043 -10.58765151 34 -19 34 C-20.65 24.1 -22.3 14.2 -24 4 C-19.79757765 2.59919255 -16.28838081 1.57856248 -12 0.875 C-11.01 0.70742187 -10.02 0.53984375 -9 0.3671875 C-5.9680398 -0.0039118 -3.05130428 -0.06356884 0 0 Z " fill="#8D2B83" transform="translate(229,149)"/>
<path d="M0 0 C3.1875 2.25 3.1875 2.25 5 5 C5 6.32 5 7.64 5 9 C2.69 9.33 0.38 9.66 -2 10 C-2.33 9.34 -2.66 8.68 -3 8 C-4.98 8 -6.96 8 -9 8 C-9.33 8.66 -9.66 9.32 -10 10 C-7.61485229 11.19257386 -5.8441201 11.20771658 -3.1875 11.375 C0.90533141 11.75352776 3.76113247 12.28353046 7 15 C8.20190901 18.60572704 8.32670315 21.2102435 8 25 C5.80189224 28.53267319 3.8288545 30.45621675 0 32 C-5.08144859 32.65127359 -9.53559857 32.76148874 -14.125 30.375 C-16.35252176 27.55347244 -16.75784048 25.55167293 -17 22 C-13.535 21.505 -13.535 21.505 -10 21 C-9.34 21.99 -8.68 22.98 -8 24 C-4.91634129 24.2502157 -4.91634129 24.2502157 -2 24 C-1.34 22.68 -0.68 21.36 0 20 C-0.88042969 19.97421875 -1.76085937 19.9484375 -2.66796875 19.921875 C-3.82941406 19.86515625 -4.99085938 19.8084375 -6.1875 19.75 C-7.33605469 19.70359375 -8.48460937 19.6571875 -9.66796875 19.609375 C-13.57968553 18.89398483 -15.29753489 17.89728237 -18 15 C-18.92781669 11.59436696 -18.73323577 8.44277106 -18 5 C-12.8743366 -0.53032103 -7.2245265 -0.93689825 0 0 Z " fill="#87207C" transform="translate(254,145)"/>
<path d="M0 0 C0.71064337 3.14105275 1.38909418 6.28827213 2.0625 9.4375 C2.26166016 10.31599609 2.46082031 11.19449219 2.66601562 12.09960938 C3.86485906 17.7993738 4.60660855 23.29710669 3 29 C-0.83558475 33.03745763 -4.42197423 34.15504181 -9.875 34.3125 C-13.0868738 34.24237175 -14.94566666 34.02312057 -17.9375 32.75 C-23.71842898 25.04209469 -23.83342593 13.27769492 -25 4 C-22.36 3.67 -19.72 3.34 -17 3 C-15.52060733 7.94631722 -14.34982934 12.86938215 -13.375 17.9375 C-13.2409375 18.62134766 -13.106875 19.30519531 -12.96875 20.00976562 C-12.64314951 21.67265383 -12.32118656 23.33625361 -12 25 C-10.35 25.33 -8.7 25.66 -7 26 C-4.8423092 23.08168439 -5.03191705 21.72518877 -5.4609375 18.03125 C-5.75241281 16.51822815 -6.05757047 15.00779026 -6.375 13.5 C-6.67747653 11.99018073 -6.97705389 10.47977715 -7.2734375 8.96875 C-7.41185059 8.30294922 -7.55026367 7.63714844 -7.69287109 6.95117188 C-8 5 -8 5 -8 1 C-5.23735711 0.40267181 -2.83967231 0 0 0 Z " fill="#8D2C83" transform="translate(163,160)"/>
<path d="M0 0 C1.4540625 0.0309375 1.4540625 0.0309375 2.9375 0.0625 C6.41929033 8.2256891 8.38293387 18.21644474 6.9375 27.0625 C4.41179367 30.47561667 2.93836696 31.72887768 -1.0625 33.0625 C-3.5859375 33.3359375 -3.5859375 33.3359375 -6.4375 33.4375 C-7.37335938 33.48648438 -8.30921875 33.53546875 -9.2734375 33.5859375 C-13.3706202 32.81699845 -14.60603084 31.42288285 -17.0625 28.0625 C-18.20896797 24.59531178 -18.80555508 21.10155424 -19.375 17.5 C-19.62733398 16.08170898 -19.62733398 16.08170898 -19.88476562 14.63476562 C-20.56836903 10.68660719 -21.0625 7.08422829 -21.0625 3.0625 C-17.5975 2.5675 -17.5975 2.5675 -14.0625 2.0625 C-11.64348976 5.97899277 -11.20787591 10.22301278 -10.5 14.6875 C-9.80256349 20.02955782 -9.80256349 20.02955782 -8.0625 25.0625 C-6.39638095 25.105221 -4.72867115 25.10313832 -3.0625 25.0625 C-1.73829751 23.9581608 -1.73829751 23.9581608 -1.875 21.1875 C-1.91897086 16.93112122 -2.76731514 12.8683266 -3.625 8.7109375 C-4.05737415 6.0935297 -4.21110868 3.70959207 -4.0625 1.0625 C-3.0625 0.0625 -3.0625 0.0625 0 0 Z " fill="#8B2780" transform="translate(226.0625,265.9375)"/>
<path d="M0 0 C2.31403968 3.7024635 2.72510879 7.17150875 2.5625 11.5 C1.6875 14.375 1.6875 14.375 -0.4375 16.5 C-4.3813402 18.31064782 -8.08551806 19.5 -12.4375 19.5 C-12.2725 20.015625 -12.1075 20.53125 -11.9375 21.0625 C-11.28701 24.23363876 -11.3754266 27.27218334 -11.4375 30.5 C-14.0775 30.83 -16.7175 31.16 -19.4375 31.5 C-20.27669128 27.08442544 -21.1078408 22.66737466 -21.9375 18.25 C-22.17597656 16.99574219 -22.41445313 15.74148438 -22.66015625 14.44921875 C-22.99853516 12.64130859 -22.99853516 12.64130859 -23.34375 10.796875 C-23.55322266 9.68666992 -23.76269531 8.57646484 -23.97851562 7.43261719 C-24.4375 4.5 -24.4375 4.5 -24.4375 0.5 C-6.6590478 -4.09787557 -6.6590478 -4.09787557 0 0 Z M-14.4375 6.5 C-14.47830783 8.49958364 -14.48004356 10.50045254 -14.4375 12.5 C-10.9725 12.005 -10.9725 12.005 -7.4375 11.5 C-7.05531233 9.84385343 -6.72354898 8.17542976 -6.4375 6.5 C-7.55586224 5.15595225 -7.55586224 5.15595225 -10.4375 5.375 C-13.31913776 5.15595225 -13.31913776 5.15595225 -14.4375 6.5 Z " fill="#8B2981" transform="translate(364.4375,304.5)"/>
<path d="M0 0 C3.12880726 1.30366969 4.47001888 2.19240972 6.3125 5 C7 7 7 7 7 10 C1.59804485 10.97412306 1.59804485 10.97412306 -1 11 C-2.6875 9.5 -2.6875 9.5 -4 8 C-6.59117313 8.00156224 -6.59117313 8.00156224 -9 9 C-11.20186088 12.30279131 -11.20044366 12.79197351 -10.6875 16.5 C-10.58824219 17.2734375 -10.48898437 18.046875 -10.38671875 18.84375 C-10.02241751 21.17239621 -10.02241751 21.17239621 -9 24 C-6.03 24 -3.06 24 0 24 C0.33 22.35 0.66 20.7 1 19 C4.96 18.505 4.96 18.505 9 18 C8.97887285 22.84868045 8.67550842 26.08055799 5.75 30.0625 C0.86804961 33.4432211 -5.39481359 32.98997073 -11 32 C-14.94109574 30.00300183 -17.22781579 27.58624961 -19.15234375 23.6328125 C-21.0059723 17.87545932 -20.95766638 12.02583273 -18.375 6.5625 C-12.74156092 0.48431573 -8.12298246 -1.12555517 0 0 Z " fill="#8C2A82" transform="translate(285,139)"/>
<path d="M0 0 C2.96407735 1.34481287 3.89404919 2.36756149 6 5 C6.375 7.8125 6.375 7.8125 6 10 C-0.0546875 10.1953125 -0.0546875 10.1953125 -2 10 C-2.66 9.34 -3.32 8.68 -4 8 C-6.45709375 7.41649495 -6.45709375 7.41649495 -9 8 C-11.67376537 10.94114191 -12.00735365 12.58084185 -11.9375 16.5625 C-10.90767139 20.33853825 -10.23062308 21.81714657 -7 24 C-3.832168 24.33448259 -3.832168 24.33448259 -1 24 C-0.690625 23.195625 -0.38125 22.39125 -0.0625 21.5625 C1 19 1 19 2 18 C3.99958364 17.95919217 6.00045254 17.95745644 8 18 C8.31346682 21.99670192 8.40395059 24.32674901 6.3125 27.8125 C2.04750961 31.84695037 -2.00417046 32.45927074 -7.71875 32.31640625 C-11.61969448 31.77535059 -13.82542901 30.34918253 -17 28 C-20.92441097 22.76745203 -21.67488342 17.46138382 -21 11 C-19.55435175 6.90399661 -17.49068714 3.61342516 -14.00390625 0.921875 C-9.54866952 -1.12770759 -4.73944561 -0.80933156 0 0 Z " fill="#8C2981" transform="translate(301,313)"/>
<path d="M0 0 C2.56587546 2.62984466 4.20254896 5.81675904 6 9 C6.79173951 10.3405705 7.58480148 11.68036049 8.37890625 13.01953125 C9.21300285 14.44931796 10.04502803 15.88031505 10.875 17.3125 C11.28081299 18.00601562 11.68662598 18.69953125 12.10473633 19.4140625 C14.10438229 22.95067609 15 24.85325548 15 29 C9.68857109 30.1508096 9.68857109 30.1508096 7 30 C5.64172029 28.35360035 4.30745749 26.68704193 3 25 C-0.70054409 25.0636079 -0.70054409 25.0636079 -4 26 C-4.66 28.31 -5.32 30.62 -6 33 C-8.31 33 -10.62 33 -13 33 C-12.64975484 25.52226587 -11.42102297 18.2233178 -10.0625 10.875 C-9.89266602 9.9260083 -9.72283203 8.9770166 -9.54785156 7.99926758 C-9.37866211 7.11005615 -9.20947266 6.22084473 -9.03515625 5.3046875 C-8.8844165 4.50015137 -8.73367676 3.69561523 -8.57836914 2.86669922 C-8.38750732 2.25068848 -8.19664551 1.63467773 -8 1 C-4.93281139 -0.53359431 -3.40870931 -0.65552102 0 0 Z M-3 12 C-3 14.31 -3 16.62 -3 19 C-1.68 18.34 -0.36 17.68 1 17 C0.03114628 15.31503702 -0.96986723 13.64821244 -2 12 C-2.33 12 -2.66 12 -3 12 Z " fill="#8C2981" transform="translate(326,308)"/>
<path d="M0 0 C3.6875 0.6875 3.6875 0.6875 4.95458984 2.17724609 C5.32793457 2.82773926 5.7012793 3.47823242 6.0859375 4.1484375 C6.7212439 5.23620483 6.7212439 5.23620483 7.36938477 6.34594727 C7.80436279 7.11865967 8.23934082 7.89137207 8.6875 8.6875 C9.12827881 9.44538818 9.56905762 10.20327637 10.02319336 10.98413086 C11.36954826 13.31161523 12.68759651 15.65322812 14 18 C14.45439453 18.79728516 14.90878906 19.59457031 15.37695312 20.41601562 C15.80556641 21.18236328 16.23417969 21.94871094 16.67578125 22.73828125 C17.06290283 23.42575439 17.45002441 24.11322754 17.84887695 24.8215332 C18.6875 26.6875 18.6875 26.6875 18.6875 29.6875 C13.40252591 30.83257772 13.40252591 30.83257772 10.6875 30.6875 C8.1875 28.25 8.1875 28.25 6.6875 25.6875 C3.21201159 26.22727565 3.21201159 26.22727565 -0.3125 27.6875 C-1.84396378 30.69344421 -1.84396378 30.69344421 -2.3125 33.6875 C-4.6225 33.6875 -6.9325 33.6875 -9.3125 33.6875 C-8.85300351 26.63660556 -7.93640374 19.66895748 -6.875 12.6875 C-6.75278076 11.85049561 -6.63056152 11.01349121 -6.50463867 10.15112305 C-6.38064697 9.35875244 -6.25665527 8.56638184 -6.12890625 7.75 C-6.02006104 7.03972656 -5.91121582 6.32945312 -5.79907227 5.59765625 C-4.82149993 1.75996135 -3.84706949 0.79844838 0 0 Z M0.6875 11.6875 C0.6875 14.3275 0.6875 16.9675 0.6875 19.6875 C2.0075 19.0275 3.3275 18.3675 4.6875 17.6875 C3.6975 15.7075 2.7075 13.7275 1.6875 11.6875 C1.3575 11.6875 1.0275 11.6875 0.6875 11.6875 Z " fill="#8A2680" transform="translate(170.3125,334.3125)"/>
<path d="M0 0 C3.32321749 1.68501169 5.52900788 3.75523512 6.875 7.3125 C6.91625 7.869375 6.9575 8.42625 7 9 C2.61569689 11.07036536 2.61569689 11.07036536 -0.1875 10.75 C-2 10 -2 10 -4 8 C-7.06991681 8.16442277 -7.06991681 8.16442277 -10 9 C-11.89678655 12.7935731 -11.37134586 17.3908346 -10.4375 21.4375 C-8.09150686 23.98749255 -5.31661719 23.75432465 -2 24 C-1.67 23.195625 -1.34 22.39125 -1 21.5625 C1 19 1 19 2.98046875 18.4453125 C4.97887376 18.2118705 6.99043533 18.09883105 9 18 C8.58791189 23.25412337 7.82282913 26.28336057 4 30 C-0.30987305 32.58592383 -5.11248481 32.56976498 -10 32 C-14.71362305 30.0098036 -17.72172827 26.55654346 -20 22 C-20.49389617 16.1380192 -20.80652142 10.79916316 -18.375 5.375 C-13.05841085 0.05841085 -7.32551959 -1.28226275 0 0 Z " fill="#89257F" transform="translate(196,214)"/>
<path d="M0 0 C1.40039062 1.63305664 1.40039062 1.63305664 2.65625 3.91015625 C3.12160156 4.73580078 3.58695312 5.56144531 4.06640625 6.41210938 C4.53949219 7.28673828 5.01257813 8.16136719 5.5 9.0625 C5.97308594 9.91005859 6.44617188 10.75761719 6.93359375 11.63085938 C7.86450204 13.30056329 8.78785355 14.97450561 9.703125 16.65283203 C10.87535821 18.77441525 12.10031407 20.85335608 13.34375 22.93359375 C15 26 15 26 15 29 C11.04 29.495 11.04 29.495 7 30 C6.01 28.35 5.02 26.7 4 25 C1.03 25.33 -1.94 25.66 -5 26 C-5 27.98 -5 29.96 -5 32 C-7.70879335 33.35439668 -10.00933268 33.06501451 -13 33 C-12.53865618 25.92075856 -11.59618837 18.9416223 -10.5 11.9375 C-10.36940186 11.0921167 -10.23880371 10.2467334 -10.10424805 9.37573242 C-9.97703369 8.58013916 -9.84981934 7.7845459 -9.71875 6.96484375 C-9.54762695 5.89157837 -9.54762695 5.89157837 -9.37304688 4.79663086 C-9 3 -9 3 -8 1 C-5.14829211 0.01665245 -3.10359391 0 0 0 Z M-3 11 C-3.33 13.64 -3.66 16.28 -4 19 C-2.35 18.67 -0.7 18.34 1 18 C0.01 15.69 -0.98 13.38 -2 11 C-2.33 11 -2.66 11 -3 11 Z " fill="#88237D" transform="translate(314,251)"/>
<path d="M0 0 C2.16754211 3.78303537 4.32167153 7.57329273 6.46362305 11.37084961 C7.19434262 12.66198774 7.92870488 13.95107128 8.66674805 15.23803711 C9.72625897 17.08701548 10.77250174 18.94295791 11.81640625 20.80078125 C12.45006104 21.91622314 13.08371582 23.03166504 13.73657227 24.1809082 C15 27 15 27 14 30 C11.69 30 9.38 30 7 30 C6.34 28.35 5.68 26.7 5 25 C2.03 25.33 -0.94 25.66 -4 26 C-4.33 28.31 -4.66 30.62 -5 33 C-8.465 33.495 -8.465 33.495 -12 34 C-12.27289722 26.97289671 -11.22312164 20.40898441 -10 13.5 C-9.80921875 12.39140625 -9.6184375 11.2828125 -9.421875 10.140625 C-8.95383586 7.42599799 -8.47974117 4.71257905 -8 2 C-2.25 0 -2.25 0 0 0 Z M-3 11 C-3.33 13.97 -3.66 16.94 -4 20 C-2.35 19.67 -0.7 19.34 1 19 C-0.26974972 14.58477891 -0.26974972 14.58477891 -3 11 Z " fill="#841B79" transform="translate(253,203)"/>
<path d="M0 0 C1.65 0.33 3.3 0.66 5 1 C5.33 2.32 5.66 3.64 6 5 C6.61875 4.814375 7.2375 4.62875 7.875 4.4375 C10 4 10 4 12 5 C12 6.98 12 8.96 12 11 C12.804375 11.12375 13.60875 11.2475 14.4375 11.375 C15.283125 11.58125 16.12875 11.7875 17 12 C17.33 12.66 17.66 13.32 18 14 C18.99 14.2165625 18.99 14.2165625 20 14.4375 C20.66 14.623125 21.32 14.80875 22 15 C22.33 15.99 22.66 16.98 23 18 C23.763125 18.12375 24.52625 18.2475 25.3125 18.375 C28 19 28 19 31 21 C30.67 22.32 30.34 23.64 30 25 C28.35 25 26.7 25 25 25 C24.01 27.475 24.01 27.475 23 30 C20.5625 29.625 20.5625 29.625 18 29 C17.67 28.34 17.34 27.68 17 27 C14.97536745 26.34786708 14.97536745 26.34786708 13 26 C13 25.34 13 24.68 13 24 C12.38125 23.896875 11.7625 23.79375 11.125 23.6875 C9 23 9 23 7 20 C4.43717258 19.27034634 4.43717258 19.27034634 2 19 C1.01879536 15.94736336 1.01879536 14.05263664 2 11 C0.515 13.475 0.515 13.475 -1 16 C-2.65 15.67 -4.3 15.34 -6 15 C-4.36041242 9.76727367 -2.61047965 4.84803364 0 0 Z M11 11 C12 13 12 13 12 13 Z M8 13 C7.67 14.32 7.34 15.64 7 17 C7.99 17.495 7.99 17.495 9 18 C9.66 16.35 10.32 14.7 11 13 C10.01 13 9.02 13 8 13 Z M16 15 C17 17 17 17 17 17 Z M15 17 C15 20 15 20 15 20 Z M22 18 C23 20 23 20 23 20 Z M20 21 C21 23 21 23 21 23 Z " fill="#8E2F85" transform="translate(347,45)"/>
<path d="M0 0 C3.55898193 1.46453681 5.40174151 3.3543769 7.75 6.375 C8.67039062 7.53128906 8.67039062 7.53128906 9.609375 8.7109375 C11 11 11 11 11 15 C9.68 15.33 8.36 15.66 7 16 C7 16.66 7 17.32 7 18 C4.18236593 20.81763407 2.71433365 21.94608803 -1.3125 22.25 C-2.199375 22.1675 -3.08625 22.085 -4 22 C-4.309375 22.804375 -4.61875 23.60875 -4.9375 24.4375 C-6 27 -6 27 -7 28 C-10.4375 27.8125 -10.4375 27.8125 -14 27 C-15.3125 25 -15.3125 25 -16 23 C-16.66 22.67 -17.32 22.34 -18 22 C-17.67 18.7 -17.34 15.4 -17 12 C-15.35 11.67 -13.7 11.34 -12 11 C-12.33 12.32 -12.66 13.64 -13 15 C-10.03 15.495 -10.03 15.495 -7 16 C-7.12375 14.8553125 -7.12375 14.8553125 -7.25 13.6875 C-7 11 -7 11 -5.1875 9.25 C-3 8 -3 8 0 7 C-0.66 6.34 -1.32 5.68 -2 5 C-1.46428571 1.46428571 -1.46428571 1.46428571 0 0 Z M-6 17 C-5 19 -5 19 -5 19 Z " fill="#8D2B83" transform="translate(379,417)"/>
<path d="M0 0 C4.13813705 0.53176995 6.27082318 2.77932166 9.25 5.5625 C10.14203125 6.38878906 11.0340625 7.21507813 11.953125 8.06640625 C12.62859375 8.70449219 13.3040625 9.34257813 14 10 C10.29293584 17.55670771 10.29293584 17.55670771 6.8125 18.75 C5.9153125 18.87375 5.9153125 18.87375 5 19 C4.9071875 20.051875 4.9071875 20.051875 4.8125 21.125 C3.70798798 25.0332733 1.71769008 27.00357248 -1 30 C-4.9520518 29.41827275 -7.22095053 27.44842259 -10.25 24.9375 C-11.14203125 24.20402344 -12.0340625 23.47054687 -12.953125 22.71484375 C-13.62859375 22.14894531 -14.3040625 21.58304688 -15 21 C-13.52069807 17.03520428 -11.76352943 14.22411767 -9 11 C-7.35 11.33 -5.7 11.66 -4 12 C-4 12.66 -4 13.32 -4 14 C-3.01 14 -2.02 14 -1 14 C-1.01160156 13.15695313 -1.02320312 12.31390625 -1.03515625 11.4453125 C-1.04417969 10.34960938 -1.05320312 9.25390625 -1.0625 8.125 C-1.07410156 7.03445312 -1.08570312 5.94390625 -1.09765625 4.8203125 C-1 2 -1 2 0 0 Z M4 10 C4.33 10.99 4.66 11.98 5 13 C5.66 13 6.32 13 7 13 C6.67 12.01 6.34 11.02 6 10 C5.34 10 4.68 10 4 10 Z M0 16 C0.33 16.99 0.66 17.98 1 19 C1.66 18.34 2.32 17.68 3 17 C2.01 16.67 1.02 16.34 0 16 Z M-1 19 C-1.66 20.32 -2.32 21.64 -3 23 C-2.01 22.34 -1.02 21.68 0 21 C-0.33 20.34 -0.66 19.68 -1 19 Z " fill="#923588" transform="translate(80,97)"/>
<path d="M0 0 C1.91342245 7.67775802 3.41078568 15.10452815 4 23 C10.93 22.01 10.93 22.01 18 21 C18.33 23.31 18.66 25.62 19 28 C17.02249322 28.48597153 15.0428835 28.96338757 13.0625 29.4375 C11.96035156 29.70433594 10.85820312 29.97117187 9.72265625 30.24609375 C5.49379795 31.10251521 1.29149793 31.59137291 -3 32 C-3.71541165 28.06789969 -4.42739889 24.13519627 -5.13623047 20.2019043 C-5.37780425 18.86416924 -5.62031006 17.52660214 -5.86376953 16.18920898 C-6.21372037 14.26590774 -6.56003308 12.34194565 -6.90625 10.41796875 C-7.11572266 9.26063232 -7.32519531 8.1032959 -7.54101562 6.91088867 C-8 4 -8 4 -8 1 C-5.29120665 -0.35439668 -2.99066732 -0.06501451 0 0 Z " fill="#8D2B83" transform="translate(139,341)"/>
<path d="M0 0 C0.2475 0.556875 0.495 1.11375 0.75 1.6875 C2.21606015 4.39971127 4.02989471 6.63587365 6 9 C3.83125748 8.49396008 2.00032373 8.00016187 0 7 C0.33 7.598125 0.66 8.19625 1 8.8125 C2 11 2 11 2 14 C-2.22949995 16.41685712 -5.12335991 17.34833144 -10 17 C-10 17.99 -10 18.98 -10 20 C-10.763125 20.103125 -11.52625 20.20625 -12.3125 20.3125 C-15.242619 21.06206532 -15.97790188 21.88598833 -18 24 C-18.99 24 -19.98 24 -21 24 C-21.33 23.34 -21.66 22.68 -22 22 C-22.66 22.66 -23.32 23.32 -24 24 C-24.33 20.04 -24.66 16.08 -25 12 C-19.375 8.625 -19.375 8.625 -15 9 C-15 7.35 -15 5.7 -15 4 C-13.35 3.67 -11.7 3.34 -10 3 C-10 3.66 -10 4.32 -10 5 C-9.34 5 -8.68 5 -8 5 C-8 4.34 -8 3.68 -8 3 C-5.36 2.01 -2.72 1.02 0 0 Z M-7 8 C-6.67 9.32 -6.34 10.64 -6 12 C-5.34 11.67 -4.68 11.34 -4 11 C-4.99 10.01 -5.98 9.02 -7 8 Z M-13 11 C-12 13 -12 13 -12 13 Z M-12 13 C-11 15 -11 15 -11 15 Z M-19 15 C-18.34 16.65 -17.68 18.3 -17 20 C-16.67 19.01 -16.34 18.02 -16 17 C-16.33 16.34 -16.66 15.68 -17 15 C-17.66 15 -18.32 15 -19 15 Z M-11 15 C-10 17 -10 17 -10 17 Z " fill="#9D4B95" transform="translate(361,436)"/>
<path d="M0 0 C1.8871875 0.061875 1.8871875 0.061875 3.8125 0.125 C4.121875 0.90875 4.43125 1.6925 4.75 2.5 C5.74125038 5.04830128 5.74125038 5.04830128 6.8125 7.125 C7.163125 6.155625 7.51375 5.18625 7.875 4.1875 C9.8125 1.125 9.8125 1.125 13.3125 0.0625 C16.8125 0.125 16.8125 0.125 18.6875 1.125 C20.36145525 4.10092045 20.63124017 6.74148317 20.8125 10.125 C19.8225 11.61 19.8225 11.61 18.8125 13.125 C16.9375 13.48828125 16.9375 13.48828125 14.8125 13.4375 C14.11125 13.43363281 13.41 13.42976563 12.6875 13.42578125 C10.8125 13.125 10.8125 13.125 8.8125 11.125 C8.35875 11.929375 7.905 12.73375 7.4375 13.5625 C5.8125 16.125 5.8125 16.125 3.8125 17.125 C1.1401379 17.25915472 -1.51000488 17.16818541 -4.1875 17.125 C-6.1875 12.375 -6.1875 12.375 -6.1875 10.125 C-6.5175 9.795 -6.8475 9.465 -7.1875 9.125 C-7.4375 5.6875 -7.4375 5.6875 -7.1875 2.125 C-4.09861478 0.06574319 -3.47814073 -0.1140374 0 0 Z M-1.1875 4.125 C-1.5175 4.785 -1.8475 5.445 -2.1875 6.125 C-1.1975 5.795 -0.2075 5.465 0.8125 5.125 C0.1525 4.795 -0.5075 4.465 -1.1875 4.125 Z M13.8125 5.125 C13.8125 6.445 13.8125 7.765 13.8125 9.125 C14.4725 9.125 15.1325 9.125 15.8125 9.125 C15.8125 8.465 15.8125 7.805 15.8125 7.125 C16.4725 6.795 17.1325 6.465 17.8125 6.125 C16.4925 5.795 15.1725 5.465 13.8125 5.125 Z M-1.1875 11.125 C2.8125 12.125 2.8125 12.125 2.8125 12.125 Z " fill="#983F8F" transform="translate(189.1875,30.875)"/>
<path d="M0 0 C2.375 1.125 2.375 1.125 4 3 C4.25 6.1875 4.25 6.1875 4 9 C1.5625 8.625 1.5625 8.625 -1 8 C-1.33 7.34 -1.66 6.68 -2 6 C-2.99 6.33 -3.98 6.66 -5 7 C-5.33 8.65 -5.66 10.3 -6 12 C-4.88625 11.79375 -3.7725 11.5875 -2.625 11.375 C-1.42875 11.25125 -0.2325 11.1275 1 11 C1.66 11.66 2.32 12.32 3 13 C3.66 11.35 4.32 9.7 5 8 C7.4375 8.375 7.4375 8.375 10 9 C10.33 9.66 10.66 10.32 11 11 C13.52733235 11.65555119 13.52733235 11.65555119 16 12 C15.48964169 16.3890815 14.47785723 19.33708062 12 23 C5.55192878 22.39169139 5.55192878 22.39169139 3.0625 20.625 C2 19 2 19 2 16 C1.34 16.33 0.68 16.66 0 17 C-7.11748879 17.68878924 -7.11748879 17.68878924 -10.5625 15 C-12.22180707 11.53709829 -12.37468541 9.5889608 -11.671875 5.87109375 C-9.71756952 0.42858025 -5.28575883 -0.78724068 0 0 Z M9 13 C8.67 14.32 8.34 15.64 8 17 C8.66 16.67 9.32 16.34 10 16 C9.67 15.01 9.34 14.02 9 13 Z " fill="#903186" transform="translate(328,35)"/>
<path d="M0 0 C1.65 0 3.3 0 5 0 C5.66 1.32 6.32 2.64 7 4 C7.66 3.34 8.32 2.68 9 2 C12.4375 1.625 12.4375 1.625 16 2 C17.9375 3.5625 17.9375 3.5625 19 6 C19.375 9.625 19.375 9.625 19 13 C15.54754176 15.30163882 14.05261287 15.34490322 10 15 C9.34 14.34 8.68 13.68 8 13 C7.7215625 13.9590625 7.7215625 13.9590625 7.4375 14.9375 C6 17 6 17 2.6875 18.0625 C-1 18 -1 18 -3.9375 15.9375 C-6.30610745 12.56402878 -6.62711146 11.03143083 -6 7 C-3.8614515 4.8614515 -2.86724686 4.57344937 0 4 C0 2.68 0 1.36 0 0 Z M-1 9 C-0.67 10.32 -0.34 11.64 0 13 C0.66 12.67 1.32 12.34 2 12 C1.67 11.01 1.34 10.02 1 9 C0.34 9 -0.32 9 -1 9 Z " fill="#923588" transform="translate(285,459)"/>
<path d="M0 0 C3.375 0.3125 3.375 0.3125 7 1 C9 4 9 4 8.625 7.1875 C8.41875 8.115625 8.2125 9.04375 8 10 C9.32 9.67 10.64 9.34 12 9 C14.47475598 11.62942823 15.87401031 13.4502268 16.6875 17 C15.78329176 20.94563597 14.09225213 21.93849858 10.82421875 24.1171875 C9 25 9 25 6 25 C5.61781233 23.34385343 5.28604898 21.67542976 5 20 C5.33 19.67 5.66 19.34 6 19 C4.68 19 3.36 19 2 19 C-2 13.88888889 -2 13.88888889 -2 11 C-2.66 11 -3.32 11 -4 11 C-4.625 7.625 -4.625 7.625 -5 4 C-4.34 3.34 -3.68 2.68 -3 2 C-2.01 2 -1.02 2 0 2 C0 1.34 0 0.68 0 0 Z M9 16 C8.67 16.66 8.34 17.32 8 18 C8.99 17.67 9.98 17.34 11 17 C10.34 16.67 9.68 16.34 9 16 Z " fill="#8A257F" transform="translate(423,114)"/>
<path d="M0 0 C4 6.5 4 6.5 4 11 C0.36576791 13.32590854 -2.77088331 13.16265833 -7 13 C-7 13.99 -7 14.98 -7 16 C-8.65 16.33 -10.3 16.66 -12 17 C-12.66 15.02 -13.32 13.04 -14 11 C-14 13.83967231 -13.59732819 16.23735711 -13 19 C-15.375 19.625 -15.375 19.625 -18 20 C-20.89424556 17.10575444 -21.85583615 15.00914693 -22.4375 10.9375 C-22 8 -22 8 -19.8125 6.125 C-16.84658069 4.93863228 -15.14234806 4.42114641 -12 5 C-10.1875 7 -10.1875 7 -9 9 C-9.061875 7.88625 -9.12375 6.7725 -9.1875 5.625 C-9.125625 4.42875 -9.06375 3.2325 -9 2 C-5.5647952 -0.29013653 -4.014669 -0.17842973 0 0 Z " fill="#903487" transform="translate(163,46)"/>
<path d="M0 0 C0.58265625 0.22558594 1.1653125 0.45117188 1.765625 0.68359375 C1.765625 1.34359375 1.765625 2.00359375 1.765625 2.68359375 C2.755625 3.01359375 3.745625 3.34359375 4.765625 3.68359375 C4.765625 4.34359375 4.765625 5.00359375 4.765625 5.68359375 C5.590625 6.15796875 6.415625 6.63234375 7.265625 7.12109375 C8.503125 7.89453125 8.503125 7.89453125 9.765625 8.68359375 C9.765625 9.67359375 9.765625 10.66359375 9.765625 11.68359375 C10.755625 12.01359375 11.745625 12.34359375 12.765625 12.68359375 C12.03762618 17.03267763 10.00999742 18.78046699 6.671875 21.46875 C4.765625 22.68359375 4.765625 22.68359375 1.578125 23.37109375 C-1.234375 22.68359375 -1.234375 22.68359375 -3.671875 20.49609375 C-5.234375 17.68359375 -5.234375 17.68359375 -4.984375 14.87109375 C-4.736875 14.14921875 -4.489375 13.42734375 -4.234375 12.68359375 C-3.244375 12.68359375 -2.254375 12.68359375 -1.234375 12.68359375 C-1.09 12.06484375 -0.945625 11.44609375 -0.796875 10.80859375 C-0.234375 8.68359375 -0.234375 8.68359375 0.765625 6.68359375 C0.023125 7.17859375 -0.719375 7.67359375 -1.484375 8.18359375 C-4.234375 9.68359375 -4.234375 9.68359375 -8.234375 9.68359375 C-8.564375 8.36359375 -8.894375 7.04359375 -9.234375 5.68359375 C-8.16544282 4.64769037 -7.07859012 3.63025433 -5.984375 2.62109375 C-5.38109375 2.05261719 -4.7778125 1.48414062 -4.15625 0.8984375 C-2.234375 -0.31640625 -2.234375 -0.31640625 0 0 Z M4.765625 11.68359375 C4.435625 12.67359375 4.105625 13.66359375 3.765625 14.68359375 C4.755625 14.35359375 5.745625 14.02359375 6.765625 13.68359375 C6.105625 13.02359375 5.445625 12.36359375 4.765625 11.68359375 Z " fill="#8B2981" transform="translate(412.234375,96.31640625)"/>
<path d="M0 0 C0.71541165 3.93210031 1.42739889 7.86480373 2.13623047 11.7980957 C2.37780425 13.13583076 2.62031006 14.47339786 2.86376953 15.81079102 C3.21372037 17.73409226 3.56003308 19.65805435 3.90625 21.58203125 C4.11572266 22.73936768 4.32519531 23.8967041 4.54101562 25.08911133 C5 28 5 28 5 31 C1.04 31.495 1.04 31.495 -3 32 C-8.37587413 9.45716783 -8.37587413 9.45716783 -8 1 C-5.07175348 0.02391783 -3.04386724 -0.08226668 0 0 Z " fill="#8E2C84" transform="translate(154,279)"/>
<path d="M0 0 C5.07588141 24.00373385 5.07588141 24.00373385 5 31 C4 32 4 32 0.9375 32.0625 C-0.031875 32.041875 -1.00125 32.02125 -2 32 C-3.49481676 28.53712517 -4.43480931 25.30053514 -5.0703125 21.5859375 C-5.33134766 20.07386719 -5.33134766 20.07386719 -5.59765625 18.53125 C-5.85869141 16.96890625 -5.85869141 16.96890625 -6.125 15.375 C-6.39763672 13.80105469 -6.39763672 13.80105469 -6.67578125 12.1953125 C-8 4.42921758 -8 4.42921758 -8 1 C-5.23735711 0.40267181 -2.83967231 0 0 0 Z " fill="#8C2981" transform="translate(275,199)"/>
<path d="M0 0 C2 2 2 2 2 6 C-0.97 5.505 -0.97 5.505 -4 5 C-4 6.32 -4 7.64 -4 9 C-3.01 8.34 -2.02 7.68 -1 7 C0.32 7 1.64 7 3 7 C3.309375 5.824375 3.309375 5.824375 3.625 4.625 C5 2 5 2 7.9375 0.625 C11 0 11 0 14 1 C15.20272819 3.40545638 15.10071472 4.94996953 15.0625 7.625 C15.05347656 8.44226562 15.04445313 9.25953125 15.03515625 10.1015625 C15.02355469 10.72804688 15.01195312 11.35453125 15 12 C11.3203125 14.0234375 11.3203125 14.0234375 8.4375 13.8125 C5.85081159 12.95027053 4.71664683 12.07804617 3 10 C2.01 11.485 2.01 11.485 1 13 C-2.5 13.3125 -2.5 13.3125 -6 13 C-8.42522207 10.57477793 -8.29629254 9.8279321 -8.3125 6.5 C-8.32925781 5.7059375 -8.34601563 4.911875 -8.36328125 4.09375 C-8.18345703 3.05734375 -8.18345703 3.05734375 -8 2 C-4.77626323 -0.14915785 -3.73296326 -0.38286803 0 0 Z " fill="#8F3285" transform="translate(251,26)"/>
<path d="M0 0 C3.71599191 -0.20086443 4.77208445 -0.1519437 8 2 C8.6875 5.125 8.6875 5.125 9 8 C10.32 6.35 11.64 4.7 13 3 C14.65 3.66 16.3 4.32 18 5 C16.62815653 9.06498881 14.77931541 11.67396561 11.875 14.8125 C11.15054687 15.60269531 10.42609375 16.39289063 9.6796875 17.20703125 C9.12539063 17.79871094 8.57109375 18.39039062 8 19 C6.68 18.34 5.36 17.68 4 17 C4 16.34 4 15.68 4 15 C2.68 14.67 1.36 14.34 0 14 C0 13.34 0 12.68 0 12 C-0.639375 11.855625 -1.27875 11.71125 -1.9375 11.5625 C-4 11 -4 11 -5 10 C-5.04063832 8.33382885 -5.042721 6.66611905 -5 5 C-4.360625 4.731875 -3.72125 4.46375 -3.0625 4.1875 C-0.66868314 3.11332248 -0.66868314 3.11332248 0 0 Z M7 9 C7 12 7 12 7 12 Z " fill="#8A247F" transform="translate(378,69)"/>
<path d="M0 0 C5.75762166 1.08896667 11.39247819 2.29336293 17 4 C16.67 5.65 16.34 7.3 16 9 C14.02 9.33 12.04 9.66 10 10 C10 10.66 10 11.32 10 12 C11.32 12 12.64 12 14 12 C14 13.65 14 15.3 14 17 C7.69732561 16.63223832 2.66748157 15.83374078 -3 13 C-2.25 10.5625 -2.25 10.5625 -1 8 C1.125 7.1875 1.125 7.1875 3 7 C2.01 6.34 1.02 5.68 0 5 C-0.1875 2.375 -0.1875 2.375 0 0 Z " fill="#8E2E84" transform="translate(30,187)"/>
<path d="M0 0 C2.4375 1.5 2.4375 1.5 4 4 C4.7099846 8.9698922 4.79117716 10.84919686 1.9375 15 C-1.77807226 17.52975133 -3.5882483 17.7878128 -8 17 C-11.38677089 14.54999553 -12.78698584 13.13607554 -13.5625 9 C-12.87642343 5.34092496 -11.57265686 3.64832324 -9 1 C-5.90826248 -0.54586876 -3.40570448 -0.29359521 0 0 Z M-5 5 C-6.71711243 7.44496043 -6.71711243 7.44496043 -8 10 C-6.02 10.99 -6.02 10.99 -4 12 C-2.35444301 10.77190909 -2.35444301 10.77190909 -1 9 C-1.22757731 6.83700789 -1.22757731 6.83700789 -2 5 C-2.99 5 -3.98 5 -5 5 Z " fill="#8F2F85" transform="translate(406,83)"/>
<path d="M0 0 C1.32 0.66 2.64 1.32 4 2 C4 3.65 4 5.3 4 7 C5.98 6.67 7.96 6.34 10 6 C10.33 6.99 10.66 7.98 11 9 C11.33 9.33 11.66 9.66 12 10 C12.99 10 13.98 10 15 10 C15.33 13.63 15.66 17.26 16 21 C8.71428571 24.57142857 8.71428571 24.57142857 4 23 C4 21.68 4 20.36 4 19 C7.465 18.505 7.465 18.505 11 18 C10.67 17.67 10.34 17.34 10 17 C7.66055264 17.28730055 5.3260857 17.61936779 3 18 C2.67 16.35 2.34 14.7 2 13 C2.99 12.67 3.98 12.34 5 12 C4.195625 11.649375 3.39125 11.29875 2.5625 10.9375 C0 9 0 9 -0.875 5.4375 C-1 2 -1 2 0 0 Z " fill="#86207B" transform="translate(452,180)"/>
<path d="M0 0 C2.4377963 -0.05397335 4.87439685 -0.09365616 7.3125 -0.125 C8.00279297 -0.14175781 8.69308594 -0.15851563 9.40429688 -0.17578125 C13.17135396 -0.21217794 14.78431704 -0.14378864 18 2 C18.36328125 4.09375 18.36328125 4.09375 18.3125 6.5 C18.30863281 7.2940625 18.30476563 8.088125 18.30078125 8.90625 C18 11 18 11 16 13 C12.5 13.25 12.5 13.25 9 13 C7 11 7 11 6.875 7.875 C6.91625 6.92625 6.9575 5.9775 7 5 C6.01 5.495 6.01 5.495 5 6 C4.26924352 8.3140622 3.59861742 10.64828869 3 13 C2.01 12.67 1.02 12.34 0 12 C-1.164859 7.72885032 -0.68943889 4.33580455 0 0 Z " fill="#87237D" transform="translate(231,466)"/>
<path d="M0 0 C3.68266103 0.59950296 7.34543185 1.24758891 11 2 C11 2.66 11 3.32 11 4 C12.65 4.33 14.3 4.66 16 5 C15.625 7.4375 15.625 7.4375 15 10 C14.01 10.495 14.01 10.495 13 11 C12.34444881 13.52733235 12.34444881 13.52733235 12 16 C8.18243176 17.37432457 4.92744671 16.67975039 1 16 C0.67 15.01 0.34 14.02 0 13 C-0.99 12.67 -1.98 12.34 -3 12 C-2.8125 10.125 -2.8125 10.125 -2 8 C0.5625 6.75 0.5625 6.75 3 6 C1.68 5.34 0.36 4.68 -1 4 C-0.67 2.68 -0.34 1.36 0 0 Z M4 7 C4.33 7.99 4.66 8.98 5 10 C6.65 10.33 8.3 10.66 10 11 C10.33 10.34 10.66 9.68 11 9 C8.35261084 7.5393715 7.10551666 7 4 7 Z " fill="#933689" transform="translate(40,160)"/>
<path d="M0 0 C1.0725 -0.01417969 2.145 -0.02835937 3.25 -0.04296875 C6 0.1875 6 0.1875 8 2.1875 C8.265625 4.28125 8.265625 4.28125 8.25 6.6875 C8.25515625 7.4815625 8.2603125 8.275625 8.265625 9.09375 C8 11.1875 8 11.1875 6 13.1875 C1.43404309 14.5711233 -3.27817937 14.28008472 -8 14.1875 C-7.67 12.5375 -7.34 10.8875 -7 9.1875 C-1.555 8.6925 -1.555 8.6925 4 8.1875 C3.67 7.5275 3.34 6.8675 3 6.1875 C-0.96 6.1875 -4.92 6.1875 -9 6.1875 C-8.67 4.5375 -8.34 2.8875 -8 1.1875 C-5.27457733 -0.17521133 -3.03912726 0.01826399 0 0 Z " fill="#923589" transform="translate(31,263.8125)"/>
<path d="M0 0 C1.32 0 2.64 0 4 0 C3.54775239 5.91492272 2.8417395 11.35199888 1 17 C-0.45922693 16.88590407 -1.91740598 16.75834456 -3.375 16.625 C-4.18710937 16.55539063 -4.99921875 16.48578125 -5.8359375 16.4140625 C-8 16 -8 16 -10 14 C-10.55641422 6.98918083 -10.55641422 6.98918083 -8.875 4 C-6.21065116 2.57901395 -3.96508915 2.80232739 -1 3 C-0.67 2.01 -0.34 1.02 0 0 Z M-5 8 C-5 8.99 -5 9.98 -5 11 C-4.34 11 -3.68 11 -3 11 C-3 10.01 -3 9.02 -3 8 C-3.66 8 -4.32 8 -5 8 Z " fill="#933789" transform="translate(308,30)"/>
<path d="M0 0 C-0.33 1.65 -0.66 3.3 -1 5 C-0.34 5 0.32 5 1 5 C3.0880823 8.39313374 3.50476722 11.04599009 3 15 C1.375 16.9375 1.375 16.9375 -1 18 C-4.4803645 17.92897215 -6.29485909 17.61415498 -8.9375 15.3125 C-10.44976855 12.02109198 -10.08259322 10.45076589 -9 7 C-5.21126761 0 -5.21126761 0 0 0 Z " fill="#8A2980" transform="translate(272,461)"/>
<path d="M0 0 C2.0836309 0.14151828 4.16689938 0.28837936 6.25 0.4375 C7.99023438 0.55931641 7.99023438 0.55931641 9.765625 0.68359375 C12.30977376 0.93247787 14.55953248 1.28114942 17 2 C16.85957123 3.64630328 16.71250671 5.29204179 16.5625 6.9375 C16.48128906 7.85402344 16.40007813 8.77054688 16.31640625 9.71484375 C16 12 16 12 15 13 C13.0390625 13.203125 13.0390625 13.203125 10.625 13.25 C9.83351563 13.27578125 9.04203125 13.3015625 8.2265625 13.328125 C6 13 6 13 4.22265625 11.65234375 C2.55151286 9.39389757 2.77803614 7.73755431 3 5 C2.01 4.67 1.02 4.34 0 4 C0 2.68 0 1.36 0 0 Z M8 6 C8 6.66 8 7.32 8 8 C8.99 8.33 9.98 8.66 11 9 C11 8.01 11 7.02 11 6 C10.01 6 9.02 6 8 6 Z " fill="#8F3085" transform="translate(25,209)"/>
<path d="M0 0 C0.33 1.65 0.66 3.3 1 5 C-2.465 6.485 -2.465 6.485 -6 8 C-5.195625 8.309375 -4.39125 8.61875 -3.5625 8.9375 C-1 10 -1 10 0 11 C0.14115161 13.67058851 0.04247107 16.32432238 0 19 C-0.66 19 -1.32 19 -2 19 C-2 18.34 -2 17.68 -2 17 C-3.98 17.33 -5.96 17.66 -8 18 C-6.68 16.68 -5.36 15.36 -4 14 C-4.78375 13.855625 -5.5675 13.71125 -6.375 13.5625 C-9 13 -9 13 -11 12 C-11.33 11.34 -11.66 10.68 -12 10 C-12.99 10 -13.98 10 -15 10 C-15.66 8.02 -16.32 6.04 -17 4 C-16.195625 3.896875 -15.39125 3.79375 -14.5625 3.6875 C-10.86493231 2.97393431 -7.49350635 1.8794946 -3.953125 0.62109375 C-2 0 -2 0 0 0 Z " fill="#933789" transform="translate(464,169)"/>
<path d="M0 0 C1.32 0 2.64 0 4 0 C4 1.65 4 3.3 4 5 C4.66 3.68 5.32 2.36 6 1 C7.32 1 8.64 1 10 1 C10 1.99 10 2.98 10 4 C10.66 4 11.32 4 12 4 C12 5.32 12 6.64 12 8 C11.34 8 10.68 8 10 8 C10.99 10.97 11.98 13.94 13 17 C10.625 17.125 10.625 17.125 8 17 C5.23776722 14.23776722 5.42143709 11.79293383 5 8 C4.67 10.97 4.34 13.94 4 17 C2.68 17 1.36 17 0 17 C0 11.39 0 5.78 0 0 Z " fill="#8E3285" transform="translate(250,462)"/>
<path d="M0 0 C3.94139078 1.66751148 6.7892812 4.22710649 10 7 C9.67 8.32 9.34 9.64 9 11 C8.34 11 7.68 11 7 11 C6.34 12.32 5.68 13.64 5 15 C0.92344826 15.47401764 -0.58343751 15.31020611 -3.9375 12.8125 C-6 10 -6 10 -5.8125 7.1875 C-5.544375 6.465625 -5.27625 5.74375 -5 5 C-4.01 5 -3.02 5 -2 5 C-1.855625 4.360625 -1.71125 3.72125 -1.5625 3.0625 C-1 1 -1 1 0 0 Z M1 8 C1.66 8.66 2.32 9.32 3 10 C3 9.34 3 8.68 3 8 C2.34 8 1.68 8 1 8 Z " fill="#943B8B" transform="translate(93,90)"/>
<path d="M0 0 C3.0625 0.3125 3.0625 0.3125 4.875 1.375 C6.68630951 4.33029446 6.93996086 6.88140417 7.0625 10.3125 C6.0625 12.25 6.0625 12.25 4.0625 13.3125 C0.5625 13.75 0.5625 13.75 -2.9375 13.3125 C-4.9375 11.75 -4.9375 11.75 -5.9375 9.3125 C-5.48600609 0.58361767 -5.48600609 0.58361767 0 0 Z " fill="#913287" transform="translate(221.9375,27.6875)"/>
<path d="M0 0 C3.68007532 0.18098731 6.40147147 0.85636692 9.8125 2.1875 C8.8225 5.4875 7.8325 8.7875 6.8125 12.1875 C1.51808305 12.69173019 -1.00163519 11.37673033 -5.1875 8.1875 C-4.17672414 0.24568966 -4.17672414 0.24568966 0 0 Z " fill="#8E2E84" transform="translate(41.1875,176.8125)"/>
<path d="M0 0 C2 2 2 2 2.1953125 4.6015625 C2.17210937 5.59929688 2.14890625 6.59703125 2.125 7.625 C2.10695313 8.62789062 2.08890625 9.63078125 2.0703125 10.6640625 C2.03550781 11.82035156 2.03550781 11.82035156 2 13 C0.37536158 13.05395478 -1.24978541 13.09277195 -2.875 13.125 C-3.77992188 13.14820313 -4.68484375 13.17140625 -5.6171875 13.1953125 C-8 13 -8 13 -10 11 C-9.67302452 4.13351499 -9.67302452 4.13351499 -7.8125 1 C-5.12064877 -0.4851593 -3.01281664 -0.32051241 0 0 Z " fill="#8E2E84" transform="translate(282,28)"/>
<path d="M0 0 C2 1.0625 2 1.0625 3 3 C2.66666667 9.33333333 2.66666667 9.33333333 0 12 C-6.00458716 12.54587156 -6.00458716 12.54587156 -8.9375 10.9375 C-10.60921702 7.88907484 -10.37033222 5.39471203 -10 2 C-6.30513897 -0.46324069 -4.36706908 -0.38991688 0 0 Z " fill="#851D7B" transform="translate(37,223)"/>
<path d="M0 0 C1.91015625 0.23046875 1.91015625 0.23046875 3.91015625 2.23046875 C4.140625 4.2890625 4.140625 4.2890625 4.09765625 6.66796875 C4.08798828 7.84166016 4.08798828 7.84166016 4.078125 9.0390625 C3.91015625 11.23046875 3.91015625 11.23046875 2.91015625 14.23046875 C1.26015625 13.90046875 -0.38984375 13.57046875 -2.08984375 13.23046875 C-2.08984375 10.92046875 -2.08984375 8.61046875 -2.08984375 6.23046875 C-2.41984375 8.21046875 -2.74984375 10.19046875 -3.08984375 12.23046875 C-4.73984375 12.23046875 -6.38984375 12.23046875 -8.08984375 12.23046875 C-7.94946854 10.41753786 -7.80239486 8.60512445 -7.65234375 6.79296875 C-7.57113281 5.78363281 -7.48992187 4.77429687 -7.40625 3.734375 C-6.80514915 -1.0224848 -4.29701325 0.08578429 0 0 Z " fill="#8E3085" transform="translate(293.08984375,29.76953125)"/>
<path d="M0 0 C1.60875 -0.04125 3.2175 -0.0825 4.875 -0.125 C5.77992188 -0.14820312 6.68484375 -0.17140625 7.6171875 -0.1953125 C10 0 10 0 12 2 C12.4140625 4.3828125 12.4140625 4.3828125 12.625 7.125 C12.69976562 8.03507812 12.77453125 8.94515625 12.8515625 9.8828125 C12.90054688 10.58148438 12.94953125 11.28015625 13 12 C11.35 12 9.7 12 8 12 C7.67 10.02 7.34 8.04 7 6 C6.67 8.31 6.34 10.62 6 13 C4.35 13 2.7 13 1 13 C0.67 8.71 0.34 4.42 0 0 Z " fill="#903186" transform="translate(229,27)"/>
<path d="M0 0 C3.5625 0.4375 3.5625 0.4375 5.5 2.5625 C6.66751612 5.72166126 6.79562509 8.09604032 6.5625 11.4375 C3.90521875 13.17495313 2.66649645 13.44581972 -0.5625 13.1875 C-3.4375 12.4375 -3.4375 12.4375 -5.4375 10.4375 C-5.703125 8.5625 -5.703125 8.5625 -5.6875 6.4375 C-5.69265625 5.73625 -5.6978125 5.035 -5.703125 4.3125 C-5.18090341 0.62622992 -3.45185312 0.43932676 0 0 Z M-0.4375 4.4375 C-0.4375 5.4275 -0.4375 6.4175 -0.4375 7.4375 C0.5525 7.4375 1.5425 7.4375 2.5625 7.4375 C2.5625 6.4475 2.5625 5.4575 2.5625 4.4375 C1.5725 4.4375 0.5825 4.4375 -0.4375 4.4375 Z " fill="#9A4792" transform="translate(103.4375,82.5625)"/>
<path d="M0 0 C0.39063507 1.43333021 0.76198474 2.87192679 1.125 4.3125 C1.33382812 5.11300781 1.54265625 5.91351563 1.7578125 6.73828125 C2 9 2 9 0 12 C-1.875 12.36328125 -1.875 12.36328125 -4 12.3125 C-4.70125 12.30863281 -5.4025 12.30476563 -6.125 12.30078125 C-8 12 -8 12 -10 10 C-10.046875 7.65234375 -10.046875 7.65234375 -9.75 4.9375 C-9.66234375 4.03902344 -9.5746875 3.14054687 -9.484375 2.21484375 C-9.32453125 1.48394531 -9.1646875 0.75304688 -9 0 C-5.93109813 -1.53445094 -3.29905734 -0.54984289 0 0 Z M-5 4 C-5 5.32 -5 6.64 -5 8 C-4.34 8 -3.68 8 -3 8 C-3 7.34 -3 6.68 -3 6 C-2.34 5.67 -1.68 5.34 -1 5 C-2.32 4.67 -3.64 4.34 -5 4 Z " fill="#85237B" transform="translate(208,32)"/>
<path d="M0 0 C1.65 0.33 3.3 0.66 5 1 C5.33 2.32 5.66 3.64 6 5 C6.61875 4.814375 7.2375 4.62875 7.875 4.4375 C10 4 10 4 12 5 C12 6.98 12 8.96 12 11 C11.34 10.67 10.68 10.34 10 10 C10 8.68 10 7.36 10 6 C4.31215317 7.7379532 2.19211161 11.21183258 -1 16 C-2.65 15.67 -4.3 15.34 -6 15 C-4.36041242 9.76727367 -2.61047965 4.84803364 0 0 Z " fill="#984190" transform="translate(347,45)"/>
<path d="M0 0 C2.64 0 5.28 0 8 0 C8.83796731 4.65537393 9.0161692 8.37078475 8 13 C6.35 13 4.7 13 3 13 C3 11.02 3 9.04 3 7 C1.515 9.475 1.515 9.475 0 12 C-0.99 11.67 -1.98 11.34 -3 11 C-3.39253254 6.55129785 -2.15305957 3.85756507 0 0 Z " fill="#8E2B83" transform="translate(192,460)"/>
<path d="M0 0 C0.90492187 0.02320313 1.80984375 0.04640625 2.7421875 0.0703125 C4.10730469 0.09738281 4.10730469 0.09738281 5.5 0.125 C6.19867188 0.14820313 6.89734375 0.17140625 7.6171875 0.1953125 C7.6171875 1.5153125 7.6171875 2.8353125 7.6171875 4.1953125 C5.3071875 4.5253125 2.9971875 4.8553125 0.6171875 5.1953125 C2.9271875 5.5253125 5.2371875 5.8553125 7.6171875 6.1953125 C7.6171875 7.8453125 7.6171875 9.4953125 7.6171875 11.1953125 C3.6571875 11.1953125 -0.3028125 11.1953125 -4.3828125 11.1953125 C-4.578125 4.359375 -4.578125 4.359375 -4.3828125 2.1953125 C-2.3828125 0.1953125 -2.3828125 0.1953125 0 0 Z " fill="#86217C" transform="translate(30.3828125,250.8046875)"/>
<path d="M0 0 C1.65 0.33 3.3 0.66 5 1 C4.608125 1.66 4.21625 2.32 3.8125 3 C2.76554946 6.86566352 3.75155873 8.68646534 5.37109375 12.23046875 C5.57863281 12.81441406 5.78617188 13.39835937 6 14 C5.67 14.66 5.34 15.32 5 16 C-0.03985731 15.55530671 -2.37634988 13.28656638 -6 10 C-4.6302836 6.00499382 -2.74277578 3.19990508 0 0 Z " fill="#8A2880" transform="translate(71,108)"/>
<path d="M0 0 C2.4164124 0.48328248 4.65832183 1.21944061 7 2 C7.33 3.65 7.66 5.3 8 7 C9.65 7.33 11.3 7.66 13 8 C12.67 9.65 12.34 11.3 12 13 C9.25 13.75 9.25 13.75 6 14 C3.625 12.0625 3.625 12.0625 2 10 C1.67 10.66 1.34 11.32 1 12 C0.34 11.67 -0.32 11.34 -1 11 C-1.02688151 9.35425434 -1.04634123 7.70838587 -1.0625 6.0625 C-1.07410156 5.14597656 -1.08570312 4.22945313 -1.09765625 3.28515625 C-1 1 -1 1 0 0 Z " fill="#973E8E" transform="translate(116,66)"/>
<path d="M0 0 C0.94552734 0.16242188 0.94552734 0.16242188 1.91015625 0.328125 C4.60477611 4.37005478 4.14216514 6.5332746 3.91015625 11.328125 C2.91015625 12.328125 2.91015625 12.328125 0.09765625 12.578125 C-3.08984375 12.328125 -3.08984375 12.328125 -5.46484375 11.328125 C-8.0725838 8.11859879 -7.41641009 5.37754757 -7.08984375 1.328125 C-5.19856033 -0.56315842 -2.51916649 0.0914398 0 0 Z M-3.08984375 4.328125 C-2.75984375 5.648125 -2.42984375 6.968125 -2.08984375 8.328125 C-1.42984375 8.328125 -0.76984375 8.328125 -0.08984375 8.328125 C-0.41984375 7.008125 -0.74984375 5.688125 -1.08984375 4.328125 C-1.74984375 4.328125 -2.40984375 4.328125 -3.08984375 4.328125 Z " fill="#8D2B82" transform="translate(333.08984375,450.671875)"/>
<path d="M0 0 C0.2475 0.556875 0.495 1.11375 0.75 1.6875 C2.21606015 4.39971127 4.02989471 6.63587365 6 9 C3.83125748 8.49396008 2.00032373 8.00016187 0 7 C0.33 7.598125 0.66 8.19625 1 8.8125 C2 11 2 11 2 14 C0.02 14.66 -1.96 15.32 -4 16 C-4.66 13.36 -5.32 10.72 -6 8 C-6.66 8 -7.32 8 -8 8 C-8 6.35 -8 4.7 -8 3 C-5.36 2.01 -2.72 1.02 0 0 Z " fill="#A05399" transform="translate(361,436)"/>
<path d="M0 0 C2 2 2 2 2 6 C-0.97 5.505 -0.97 5.505 -4 5 C-4 6.32 -4 7.64 -4 9 C-0.535 8.505 -0.535 8.505 3 8 C2.34 9.65 1.68 11.3 1 13 C-2.375 13.125 -2.375 13.125 -6 13 C-8.42522207 10.57477793 -8.29629254 9.8279321 -8.3125 6.5 C-8.32925781 5.7059375 -8.34601563 4.911875 -8.36328125 4.09375 C-8.18345703 3.05734375 -8.18345703 3.05734375 -8 2 C-4.77626323 -0.14915785 -3.73296326 -0.38286803 0 0 Z " fill="#8B2981" transform="translate(251,26)"/>
<path d="M0 0 C3.55898193 1.46453681 5.40174151 3.3543769 7.75 6.375 C8.67039062 7.53128906 8.67039062 7.53128906 9.609375 8.7109375 C11 11 11 11 11 15 C9.68 15.33 8.36 15.66 7 16 C7 16.66 7 17.32 7 18 C6.34 17.67 5.68 17.34 5 17 C5 15.35 5 13.7 5 12 C4.38125 11.7525 3.7625 11.505 3.125 11.25 C-0.00981865 9.40598903 -0.57867523 7.19375352 -1.75 3.875 C-1.8325 3.25625 -1.915 2.6375 -2 2 C-1.34 1.34 -0.68 0.68 0 0 Z " fill="#9D4C95" transform="translate(379,417)"/>
<path d="M0 0 C1.65 0 3.3 0 5 0 C5.66 0.99 6.32 1.98 7 3 C7.66 2.67 8.32 2.34 9 2 C10.99960012 1.960008 13.00047242 1.95653201 15 2 C14.360625 2.226875 13.72125 2.45375 13.0625 2.6875 C12.381875 3.120625 11.70125 3.55375 11 4 C10.855625 4.7425 10.71125 5.485 10.5625 6.25 C9.75685953 10.18868677 7.68247968 12.04239419 5 15 C3.0625 14.625 3.0625 14.625 1 14 C0.67 13.34 0.34 12.68 0 12 C0.66 12 1.32 12 2 12 C1.34 8.04 0.68 4.08 0 0 Z M5 4 C4.34 5.32 3.68 6.64 3 8 C3.99 7.34 4.98 6.68 6 6 C5.67 5.34 5.34 4.68 5 4 Z " fill="#994290" transform="translate(74,112)"/>
<path d="M0 0 C1.65 0 3.3 0 5 0 C5.05422947 1.4370809 5.09289723 2.87475462 5.125 4.3125 C5.14820313 5.11300781 5.17140625 5.91351563 5.1953125 6.73828125 C5 9 5 9 3 12 C2.36707617 14.11280345 2.36707617 14.11280345 2 16 C0.35 16 -1.3 16 -3 16 C-3.38063221 13.6739143 -3.71269945 11.33944736 -4 9 C-3.67 8.67 -3.34 8.34 -3 8 C-3.28604898 6.32457024 -3.61781233 4.65614657 -4 3 C-3.01 3.495 -3.01 3.495 -2 4 C-1.34 2.68 -0.68 1.36 0 0 Z " fill="#913588" transform="translate(204,458)"/>
<path d="M0 0 C2.475 0.99 2.475 0.99 5 2 C3.62815653 6.06498881 1.77931541 8.67396561 -1.125 11.8125 C-1.84945313 12.60269531 -2.57390625 13.39289063 -3.3203125 14.20703125 C-3.87460937 14.79871094 -4.42890625 15.39039062 -5 16 C-6.32 15.34 -7.64 14.68 -9 14 C-7.65070536 10.16336928 -5.92248975 7.34827431 -3.375 4.1875 C-2.42753906 3.00220703 -2.42753906 3.00220703 -1.4609375 1.79296875 C-0.97882813 1.20128906 -0.49671875 0.60960938 0 0 Z " fill="#943B8B" transform="translate(391,72)"/>
<path d="M0 0 C1.32 0 2.64 0 4 0 C4 0.66 4 1.32 4 2 C5.65 2 7.3 2 9 2 C9 1.34 9 0.68 9 0 C10.32 0 11.64 0 13 0 C13.125 2.375 13.125 2.375 13 5 C10.57618952 7.42381048 9.47105079 7.44016497 6.125 7.8125 C4.82949219 7.97685547 4.82949219 7.97685547 3.5078125 8.14453125 C0.40301462 7.9655943 -0.83034595 7.19488258 -3 5 C-3 4.01 -3 3.02 -3 2 C-2.01 2 -1.02 2 0 2 C0 1.34 0 0.68 0 0 Z " fill="#923689" transform="translate(26,236)"/>
<path d="M0 0 C3 1 3 1 4.421875 3.58203125 C4.86015625 4.64808594 5.2984375 5.71414062 5.75 6.8125 C6.19859375 7.87082031 6.6471875 8.92914063 7.109375 10.01953125 C7.99217313 12.97380744 8.11580482 14.1900769 7 17 C5.68 17 4.36 17 3 17 C2.15787744 15.08717875 1.32661136 13.16957527 0.5 11.25 C0.0359375 10.18265625 -0.428125 9.1153125 -0.90625 8.015625 C-2 5 -2 5 -2 1 C-1.34 0.67 -0.68 0.34 0 0 Z " fill="#943B8B" transform="translate(165,38)"/>
<path d="M0 0 C1.04449911 3.13349732 0.93423645 3.98968256 0 7 C-1.134375 7.12375 -2.26875 7.2475 -3.4375 7.375 C-5.2009375 7.684375 -5.2009375 7.684375 -7 8 C-7.33 8.66 -7.66 9.32 -8 10 C-9.65 9.67 -11.3 9.34 -13 9 C-13 7.35 -13 5.7 -13 4 C-8.38987758 1.04952165 -5.63470383 -0.5497272 0 0 Z " fill="#831F79" transform="translate(459,163)"/>
<path d="M0 0 C0 2.1875 0 2.1875 -1 5 C-4.53558868 8.12211888 -7.78939944 9.89191066 -12.5 10.3125 C-13.7375 10.1578125 -13.7375 10.1578125 -15 10 C-15 8.68 -15 7.36 -15 6 C-12.48046875 4.04296875 -12.48046875 4.04296875 -9.1875 2.1875 C-8.10855469 1.56230469 -7.02960938 0.93710938 -5.91796875 0.29296875 C-3 -1 -3 -1 0 0 Z " fill="#811676" transform="translate(447,133)"/>
<path d="M0 0 C3.37462715 0.54723683 5.08235 1.0549 8 3 C7.67 4.32 7.34 5.64 7 7 C5.35 7 3.7 7 2 7 C1.34 8.65 0.68 10.3 0 12 C-1.65 11.67 -3.3 11.34 -5 11 C-5.25 8.75 -5.25 8.75 -5 6 C-3.0625 3.8125 -3.0625 3.8125 -1 2 C-0.67 1.34 -0.34 0.68 0 0 Z " fill="#923289" transform="translate(370,63)"/>
<path d="M0 0 C0.58265625 0.22558594 1.1653125 0.45117188 1.765625 0.68359375 C1.765625 1.34359375 1.765625 2.00359375 1.765625 2.68359375 C2.755625 3.01359375 3.745625 3.34359375 4.765625 3.68359375 C4.105625 5.33359375 3.445625 6.98359375 2.765625 8.68359375 C2.105625 8.68359375 1.445625 8.68359375 0.765625 8.68359375 C0.765625 8.02359375 0.765625 7.36359375 0.765625 6.68359375 C0.023125 7.17859375 -0.719375 7.67359375 -1.484375 8.18359375 C-4.234375 9.68359375 -4.234375 9.68359375 -8.234375 9.68359375 C-8.564375 8.36359375 -8.894375 7.04359375 -9.234375 5.68359375 C-8.16544282 4.64769037 -7.07859012 3.63025433 -5.984375 2.62109375 C-5.38109375 2.05261719 -4.7778125 1.48414062 -4.15625 0.8984375 C-2.234375 -0.31640625 -2.234375 -0.31640625 0 0 Z " fill="#923489" transform="translate(412.234375,96.31640625)"/>
<path d="M0 0 C0.33 2.31 0.66 4.62 1 7 C0.01 7 -0.98 7 -2 7 C-1.67 8.98 -1.34 10.96 -1 13 C-3.875 13.625 -3.875 13.625 -7 14 C-7.66 13.34 -8.32 12.68 -9 12 C-8.65684171 7.88210048 -7.08709655 4.53200955 -5 1 C-2 0 -2 0 0 0 Z " fill="#8B2781" transform="translate(357,51)"/>
<path d="M0 0 C1.32 0 2.64 0 4 0 C4 0.66 4 1.32 4 2 C4.66 2 5.32 2 6 2 C7.81242323 6.0188515 9.33501617 9.61110675 10 14 C8.02 14 6.04 14 4 14 C3.67 11.69 3.34 9.38 3 7 C2.01 7 1.02 7 0 7 C-0.38133299 5.0085944 -0.71325582 3.00720923 -1 1 C-0.67 0.67 -0.34 0.34 0 0 Z " fill="#89237F" transform="translate(347,439)"/>
<path d="M0 0 C0.125 2.875 0.125 2.875 0 6 C-3.38370684 9.38370684 -7.2332093 9.05529986 -11.8125 9.0625 C-13.20839779 9.04655989 -14.60427948 9.02736707 -16 9 C-15.67 7.35 -15.34 5.7 -15 4 C-13.37585622 3.80522261 -11.75063577 3.61940542 -10.125 3.4375 C-9.22007813 3.33308594 -8.31515625 3.22867187 -7.3828125 3.12109375 C-5 3 -5 3 -3 4 C-3 3.01 -3 2.02 -3 1 C-1 0 -1 0 0 0 Z " fill="#8D2E84" transform="translate(39,269)"/>
<path d="M0 0 C1.65 0 3.3 0 5 0 C5.33895656 1.72807318 5.67091525 3.45751974 6 5.1875 C6.185625 6.15042969 6.37125 7.11335938 6.5625 8.10546875 C6.96877612 10.7934206 7.07933572 13.28771019 7 16 C5.35 16 3.7 16 2 16 C1.66104344 14.27192682 1.32908475 12.54248026 1 10.8125 C0.814375 9.84957031 0.62875 8.88664062 0.4375 7.89453125 C0.03122388 5.2065794 -0.07933572 2.71228981 0 0 Z " fill="#913387" transform="translate(209,26)"/>
<path d="M0 0 C3.375 -0.125 3.375 -0.125 7 0 C9.58926331 2.58926331 9.37398043 4.02705279 9.625 7.625 C9.69976562 8.62789063 9.77453125 9.63078125 9.8515625 10.6640625 C9.92503906 11.82035156 9.92503906 11.82035156 10 13 C9.34 12.34 8.68 11.68 8 11 C7.34 11.66 6.68 12.32 6 13 C2.875 13.125 2.875 13.125 0 13 C-0.33 12.34 -0.66 11.68 -1 11 C0.65 11 2.3 11 4 11 C4.33 10.34 4.66 9.68 5 9 C3.68 9 2.36 9 1 9 C1 8.34 1 7.68 1 7 C1.66 7 2.32 7 3 7 C2.67 5.68 2.34 4.36 2 3 C2.66 2.67 3.32 2.34 4 2 C2.68 1.34 1.36 0.68 0 0 Z " fill="#9A4792" transform="translate(221,465)"/>
<path d="M0 0 C3.39192363 0.59283621 5.2107757 1.76743189 7.75 4.0625 C8.67039062 4.88427734 8.67039062 4.88427734 9.609375 5.72265625 C10.29773438 6.35494141 10.29773438 6.35494141 11 7 C10.67 8.32 10.34 9.64 10 11 C9.34 11 8.68 11 8 11 C7.67 11.66 7.34 12.32 7 13 C6.67 12.34 6.34 11.68 6 11 C3.98330173 9.86649466 3.98330173 9.86649466 2 9 C2 8.34 2 7.68 2 7 C1.34 7 0.68 7 0 7 C-1.125 2.25 -1.125 2.25 0 0 Z " fill="#98418F" transform="translate(80,97)"/>
<path d="M0 0 C1.98 0 3.96 0 6 0 C6.50615298 1.26839526 7.00469099 2.53983102 7.5 3.8125 C7.91765625 4.87404297 7.91765625 4.87404297 8.34375 5.95703125 C9 8 9 8 9 11 C7.35 11.33 5.7 11.66 4 12 C3.67 11.34 3.34 10.68 3 10 C2.34 10.66 1.68 11.32 1 12 C0.67 8.04 0.34 4.08 0 0 Z " fill="#994290" transform="translate(336,448)"/>
<path d="M0 0 C2.64 0 5.28 0 8 0 C8.33 0.99 8.66 1.98 9 3 C8.34 3 7.68 3 7 3 C7 3.66 7 4.32 7 5 C6.01 5.495 6.01 5.495 5 6 C4.26924352 8.3140622 3.59861742 10.64828869 3 13 C2.01 12.67 1.02 12.34 0 12 C-1.16063604 7.74433453 -0.76173392 4.3164922 0 0 Z " fill="#8F3085" transform="translate(231,466)"/>
<path d="M0 0 C1.32 0 2.64 0 4 0 C4 5.61 4 11.22 4 17 C2.68 17 1.36 17 0 17 C0 11.39 0 5.78 0 0 Z " fill="#88217E" transform="translate(250,462)"/>
<path d="M0 0 C0.33 0 0.66 0 1 0 C1 1.98 1 3.96 1 6 C-6.28571429 9.57142857 -6.28571429 9.57142857 -11 8 C-11 6.68 -11 5.36 -11 4 C-7.535 3.505 -7.535 3.505 -4 3 C-4 2.34 -4 1.68 -4 1 C-2.68 1.33 -1.36 1.66 0 2 C0 1.34 0 0.68 0 0 Z " fill="#943A8B" transform="translate(467,195)"/>
<path d="M0 0 C5.28 0 10.56 0 16 0 C16 1.32 16 2.64 16 4 C10.72 4 5.44 4 0 4 C0 2.68 0 1.36 0 0 Z " fill="#801375" transform="translate(22,245)"/>
<path d="M0 0 C0.33 0.66 0.66 1.32 1 2 C2.98 2 4.96 2 7 2 C6.67 2.66 6.34 3.32 6 4 C5.34 4 4.68 4 4 4 C4.33 5.32 4.66 6.64 5 8 C4.34 8 3.68 8 3 8 C3 8.66 3 9.32 3 10 C4.32 10 5.64 10 7 10 C6.67 10.99 6.34 11.98 6 13 C3.03 12.505 3.03 12.505 0 12 C-0.19477739 10.37585622 -0.38059458 8.75063577 -0.5625 7.125 C-0.66691406 6.22007812 -0.77132812 5.31515625 -0.87890625 4.3828125 C-1 2 -1 2 0 0 Z " fill="#851C7A" transform="translate(219,464)"/>
<path d="M0 0 C0.33 0.66 0.66 1.32 1 2 C2.65614657 2.38218767 4.32457024 2.71395102 6 3 C6.66 3.33 7.32 3.66 8 4 C8 5.65 8 7.3 8 9 C5.03 8.505 5.03 8.505 2 8 C2 7.34 2 6.68 2 6 C0.68 6 -0.64 6 -2 6 C-2.33 4.68 -2.66 3.36 -3 2 C-2.01 1.34 -1.02 0.68 0 0 Z " fill="#87207D" transform="translate(56,143)"/>
<path d="M0 0 C2.5625 0.1875 2.5625 0.1875 4.5625 2.1875 C4.1875 4.8125 4.1875 4.8125 3.5625 7.1875 C-1.1875 8.3125 -1.1875 8.3125 -3.4375 7.1875 C-3.48004356 5.18795254 -3.47830783 3.18708364 -3.4375 1.1875 C-2.4375 0.1875 -2.4375 0.1875 0 0 Z " fill="#9C4893" transform="translate(87.4375,394.8125)"/>
<path d="M0 0 C0.625 2.375 0.625 2.375 1 5 C-1 7 -1 7 -3.5625 7.1875 C-6 7 -6 7 -7 6 C-7.04080783 4.00041636 -7.04254356 1.99954746 -7 0 C-4.3333581 -1.33332095 -2.83319697 -0.67102033 0 0 Z " fill="#984190" transform="translate(435,371)"/>
<path d="M0 0 C2.5625 -0.25 2.5625 -0.25 5 0 C6 1 6 1 6.125 4 C6 7 6 7 5 8 C3.33382885 8.04063832 1.66611905 8.042721 0 8 C-1.125 5.6875 -1.125 5.6875 -2 3 C-1.34 2.01 -0.68 1.02 0 0 Z " fill="#994391" transform="translate(46,334)"/>
<path d="M0 0 C4.70588235 0.70588235 4.70588235 0.70588235 6 2 C6.125 4.5 6.125 4.5 6 7 C5 8 5 8 2.5625 8.1875 C0 8 0 8 -2 6 C-1.44444444 1.44444444 -1.44444444 1.44444444 0 0 Z " fill="#963F8D" transform="translate(451,330)"/>
<path d="M0 0 C2.5 0.125 2.5 0.125 3.5 1.125 C3.625 4.125 3.625 4.125 3.5 7.125 C2.5 8.125 2.5 8.125 0 8.25 C-2.5 8.125 -2.5 8.125 -3.5 7.125 C-3.625 4.125 -3.625 4.125 -3.5 1.125 C-2.5 0.125 -2.5 0.125 0 0 Z " fill="#9C4894" transform="translate(121.5,424.875)"/>
<path d="M0 0 C2.5 0.125 2.5 0.125 3.5 1.125 C3.625 4.125 3.625 4.125 3.5 7.125 C2.5 8.125 2.5 8.125 0 8.25 C-2.5 8.125 -2.5 8.125 -3.5 7.125 C-3.625 4.125 -3.625 4.125 -3.5 1.125 C-2.5 0.125 -2.5 0.125 0 0 Z " fill="#994290" transform="translate(444.5,348.875)"/>
<path d="M0 0 C4.875 0.875 4.875 0.875 6 2 C6.125 4.5 6.125 4.5 6 7 C5 8 5 8 2.4375 8.0625 C1.633125 8.041875 0.82875 8.02125 0 8 C-1.125 5.6875 -1.125 5.6875 -2 3 C-1.34 2.01 -0.68 1.02 0 0 Z " fill="#994290" transform="translate(466,272)"/>
<path d="M0 0 C1.4540625 0.0309375 1.4540625 0.0309375 2.9375 0.0625 C4.0625 4.8125 4.0625 4.8125 2.9375 7.0625 C0.93795254 7.10504356 -1.06291636 7.10330783 -3.0625 7.0625 C-4.0625 6.0625 -4.0625 6.0625 -4.1875 3.5625 C-4.00295237 -0.12845252 -3.76342282 0.07680455 0 0 Z " fill="#994391" transform="translate(152.0625,443.9375)"/>
<path d="M0 0 C2.5 0.125 2.5 0.125 3.5 1.125 C3.54080783 3.12458364 3.54254356 5.12545254 3.5 7.125 C-1.25 8.25 -1.25 8.25 -3.5 7.125 C-3.54254356 5.12545254 -3.54080783 3.12458364 -3.5 1.125 C-2.5 0.125 -2.5 0.125 0 0 Z " fill="#8F2F85" transform="translate(409.5,397.875)"/>
<path d="M0 0 C2.5 0.125 2.5 0.125 3.5 1.125 C3.54080783 3.12458364 3.54254356 5.12545254 3.5 7.125 C-1.25 8.25 -1.25 8.25 -3.5 7.125 C-3.54254356 5.12545254 -3.54080783 3.12458364 -3.5 1.125 C-2.5 0.125 -2.5 0.125 0 0 Z " fill="#983F8F" transform="translate(66.5,367.875)"/>
<path d="M0 0 C0.04254356 1.99954746 0.04080783 4.00041636 0 6 C-1 7 -1 7 -3.5 7.125 C-6 7 -6 7 -7 6 C-7.04080783 4.00041636 -7.04254356 1.99954746 -7 0 C-4.3333581 -1.33332095 -2.83319697 -0.67102033 0 0 Z " fill="#94398B" transform="translate(63,357)"/>
<path d="M0 0 C0.04254356 1.99954746 0.04080783 4.00041636 0 6 C-1 7 -1 7 -3.5 7.125 C-6 7 -6 7 -7 6 C-7.04080783 4.00041636 -7.04254356 1.99954746 -7 0 C-4.3333581 -1.33332095 -2.83319697 -0.67102033 0 0 Z " fill="#9A4591" transform="translate(57,346)"/>
<path d="M0 0 C1.4540625 0.0309375 1.4540625 0.0309375 2.9375 0.0625 C4.0625 4.8125 4.0625 4.8125 2.9375 7.0625 C0.93795254 7.10504356 -1.06291636 7.10330783 -3.0625 7.0625 C-4.0625 6.0625 -4.0625 6.0625 -4.1875 3.5625 C-4.00295237 -0.12845252 -3.76342282 0.07680455 0 0 Z " fill="#93398B" transform="translate(44.0625,322.9375)"/>
<path d="M0 0 C1.4540625 0.0309375 1.4540625 0.0309375 2.9375 0.0625 C4.0625 4.8125 4.0625 4.8125 2.9375 7.0625 C0.93795254 7.10504356 -1.06291636 7.10330783 -3.0625 7.0625 C-4.0625 6.0625 -4.0625 6.0625 -4.1875 3.5625 C-4.00295237 -0.12845252 -3.76342282 0.07680455 0 0 Z " fill="#94388B" transform="translate(40.0625,310.9375)"/>
<path d="M0 0 C2.5625 0.1875 2.5625 0.1875 4.5625 2.1875 C4.1875 4.8125 4.1875 4.8125 3.5625 7.1875 C1.56295254 7.23004356 -0.43791636 7.22830783 -2.4375 7.1875 C-3.4375 6.1875 -3.4375 6.1875 -3.5625 3.6875 C-3.39599509 0.35740177 -3.31519894 0.2550153 0 0 Z " fill="#93398A" transform="translate(463.4375,297.8125)"/>
<path d="M0 0 C1 1 1 1 1.125 3.5 C1 6 1 6 0 7 C-2.5 7.125 -2.5 7.125 -5 7 C-6 6 -6 6 -6.0625 2.9375 C-6.041875 1.968125 -6.02125 0.99875 -6 0 C-3.49749232 -1.25125384 -2.59701335 -0.83774624 0 0 Z " fill="#913387" transform="translate(469,285)"/>
<path d="M0 0 C0.125 2.375 0.125 2.375 0 5 C-0.66 5.66 -1.32 6.32 -2 7 C-4.625 6.625 -4.625 6.625 -7 6 C-7 4.02 -7 2.04 -7 0 C-4.3333581 -1.33332095 -2.83319697 -0.67102033 0 0 Z " fill="#94378A" transform="translate(472,224)"/>
<path d="M0 0 C1.99954746 -0.04254356 4.00041636 -0.04080783 6 0 C7 1 7 1 7.125 3.5 C7 6 7 6 6 7 C4.00041636 7.04080783 1.99954746 7.04254356 0 7 C0 4.69 0 2.38 0 0 Z " fill="#994090" transform="translate(99,410)"/>
<path d="M0 0 C1.4540625 0.0309375 1.4540625 0.0309375 2.9375 0.0625 C2.9375 2.3725 2.9375 4.6825 2.9375 7.0625 C0.93795254 7.10504356 -1.06291636 7.10330783 -3.0625 7.0625 C-4.0625 6.0625 -4.0625 6.0625 -4.1875 3.5625 C-4.00295237 -0.12845252 -3.76342282 0.07680455 0 0 Z " fill="#963C8D" transform="translate(76.0625,380.9375)"/>
<path d="M0 0 C2.5 0.125 2.5 0.125 3.5 1.125 C3.54080783 3.12458364 3.54254356 5.12545254 3.5 7.125 C1.19 7.125 -1.12 7.125 -3.5 7.125 C-3.54254356 5.12545254 -3.54080783 3.12458364 -3.5 1.125 C-2.5 0.125 -2.5 0.125 0 0 Z " fill="#913387" transform="translate(36.5,298.875)"/>
<path d="M0 0 C0.625 1.875 0.625 1.875 1 4 C-1 6 -1 6 -3.5625 6.1875 C-6 6 -6 6 -7 5 C-7.04063832 3.33382885 -7.042721 1.66611905 -7 0 C-4.3333581 -1.33332095 -2.83319697 -0.67102033 0 0 Z " fill="#86217D" transform="translate(473,249)"/>
<path d="M0 0 C2.5 0.125 2.5 0.125 3.5 1.125 C3.54080783 3.12458364 3.54254356 5.12545254 3.5 7.125 C1.50045254 7.16754356 -0.50041636 7.16580783 -2.5 7.125 C-3.5 6.125 -3.5 6.125 -3.625 3.625 C-3.45661291 0.25725827 -3.36774173 0.16838709 0 0 Z " fill="#903186" transform="translate(459.5,312.875)"/>
<path d="M0 0 C4.70588235 0.70588235 4.70588235 0.70588235 6 2 C6.04063832 3.66617115 6.042721 5.33388095 6 7 C3.69 7 1.38 7 -1 7 C-1.04254356 5.00045254 -1.04080783 2.99958364 -1 1 C-0.67 0.67 -0.34 0.34 0 0 Z " fill="#87217C" transform="translate(467,260)"/>
<path d="M0 0 C2.5 0.125 2.5 0.125 3.5 1.125 C3.625 3.625 3.625 3.625 3.5 6.125 C2.5 7.125 2.5 7.125 0 7.25 C-2.5 7.125 -2.5 7.125 -3.5 6.125 C-3.625 3.625 -3.625 3.625 -3.5 1.125 C-2.5 0.125 -2.5 0.125 0 0 Z " fill="#89227F" transform="translate(469.5,235.875)"/>
<path d="M0 0 C1.35439668 2.70879335 1.06501451 5.00933268 1 8 C-0.32 8.33 -1.64 8.66 -3 9 C-4.25664978 6.09399739 -5 4.20395416 -5 1 C-3 0 -3 0 0 0 Z " fill="#97408E" transform="translate(178,47)"/>
<path d="M0 0 C0.33 1.32 0.66 2.64 1 4 C-1.64 4 -4.28 4 -7 4 C-7.66 2.68 -8.32 1.36 -9 0 C-5.93109813 -1.53445094 -3.29905734 -0.54984289 0 0 Z " fill="#851B7B" transform="translate(192,44)"/>
<path d="M0 0 C1.32 0.33 2.64 0.66 4 1 C3.36610352 1.38067627 2.73220703 1.76135254 2.07910156 2.15356445 C-0.60234051 4.53493439 -0.74526338 6.03052781 -1.265625 9.54296875 C-1.43320313 10.61611328 -1.60078125 11.68925781 -1.7734375 12.79492188 C-1.93070313 13.91447266 -2.08796875 15.03402344 -2.25 16.1875 C-2.42273438 17.31865234 -2.59546875 18.44980469 -2.7734375 19.61523438 C-3.19768954 22.40822696 -3.6058521 25.20262719 -4 28 C-4.33 28 -4.66 28 -5 28 C-3.43574297 5.15361446 -3.43574297 5.15361446 0 0 Z " fill="#AB66A4" transform="translate(167,335)"/>
<path d="M0 0 C2 1 2 1 3.125 4.0625 C3.41375 5.031875 3.7025 6.00125 4 7 C1.125 7.625 1.125 7.625 -2 8 C-2.66 7.34 -3.32 6.68 -4 6 C-4 5.01 -4 4.02 -4 3 C-2 1.3125 -2 1.3125 0 0 Z " fill="#851E7C" transform="translate(352,57)"/>
<path d="M0 0 C0.66 0.66 1.32 1.32 2 2 C3.65 1.67 5.3 1.34 7 1 C7 4.63 7 8.26 7 12 C6.67 12 6.34 12 6 12 C5.34 9.69 4.68 7.38 4 5 C3.01 5.33 2.02 5.66 1 6 C0 5 0 5 -0.0625 2.4375 C-0.041875 1.633125 -0.02125 0.82875 0 0 Z " fill="#9B4D94" transform="translate(212,463)"/>
<path d="M0 0 C1.65 0 3.3 0 5 0 C5.625 1.8125 5.625 1.8125 6 4 C5.01 5.485 5.01 5.485 4 7 C4.33 7.66 4.66 8.32 5 9 C4.01 9 3.02 9 2 9 C1.34 6.03 0.68 3.06 0 0 Z " fill="#9C4C94" transform="translate(74,112)"/>
<path d="M0 0 C1.65 0.33 3.3 0.66 5 1 C4.67 2.65 4.34 4.3 4 6 C5.65 6 7.3 6 9 6 C7.125 7.0625 7.125 7.0625 5 8 C4.34 7.67 3.68 7.34 3 7 C3 6.34 3 5.68 3 5 C1.68 4.67 0.36 4.34 -1 4 C-0.67 2.68 -0.34 1.36 0 0 Z " fill="#9D4C95" transform="translate(187,453)"/>
<path d="M0 0 C0.99 0.33 1.98 0.66 3 1 C2.75 3.375 2.75 3.375 2 6 C-0.0625 7.3125 -0.0625 7.3125 -2 8 C-2.33 6.02 -2.66 4.04 -3 2 C-2.01 1.34 -1.02 0.68 0 0 Z " fill="#A55A9E" transform="translate(444,132)"/>
<path d="M0 0 C1.32 0 2.64 0 4 0 C4.66 1.65 5.32 3.3 6 5 C5.01 4.67 4.02 4.34 3 4 C2.67 4.99 2.34 5.98 2 7 C0.4375 5.75 0.4375 5.75 -1 4 C-0.6875 1.8125 -0.6875 1.8125 0 0 Z " fill="#9C4E95" transform="translate(122,61)"/>
<path d="M0 0 C0.99 0.66 1.98 1.32 3 2 C2.67 3.65 2.34 5.3 2 7 C0.68 7 -0.64 7 -2 7 C-2.6875 5.1875 -2.6875 5.1875 -3 3 C-1.5625 1.25 -1.5625 1.25 0 0 Z " fill="#831777" transform="translate(158,52)"/>
<path d="M0 0 C1.485 0.99 1.485 0.99 3 2 C3.99 2.33 4.98 2.66 6 3 C6 4.32 6 5.64 6 7 C4.35 7 2.7 7 1 7 C0.67 4.69 0.34 2.38 0 0 Z " fill="#A75EA0" transform="translate(200,467)"/>
<path d="M0 0 C2.0625 0.4375 2.0625 0.4375 4 1 C3.01 1.495 3.01 1.495 2 2 C2.33 7.28 2.66 12.56 3 18 C1.08401095 14.1680219 0.43546496 11.49526475 -0.1875 7.3125 C-0.36667969 6.15363281 -0.54585937 4.99476563 -0.73046875 3.80078125 C-0.81941406 2.87652344 -0.90835938 1.95226562 -1 1 C-0.67 0.67 -0.34 0.34 0 0 Z " fill="#9B4693" transform="translate(206,152)"/>
<path d="M0 0 C0.33 1.65 0.66 3.3 1 5 C-0.8125 6.0625 -0.8125 6.0625 -3 7 C-3.99 6.67 -4.98 6.34 -6 6 C-4.68 5.67 -3.36 5.34 -2 5 C-2 4.34 -2 3.68 -2 3 C-2.99 3.33 -3.98 3.66 -5 4 C-4.67 3.01 -4.34 2.02 -4 1 C-2 0 -2 0 0 0 Z " fill="#BB81B6" transform="translate(464,169)"/>
<path d="M0 0 C1.65 0 3.3 0 5 0 C5 1.65 5 3.3 5 5 C3.35 5 1.7 5 0 5 C0 3.35 0 1.7 0 0 Z " fill="#A4599D" transform="translate(209,26)"/>
<path d="M0 0 C0 1.98 0 3.96 0 6 C-0.66 5.67 -1.32 5.34 -2 5 C-2 3.68 -2 2.36 -2 1 C-3.98 1.66 -5.96 2.32 -8 3 C-8 2.01 -8 1.02 -8 0 C-4.71023192 -1.09658936 -3.28696233 -0.79953138 0 0 Z " fill="#AF7EAB" transform="translate(359,50)"/>
<path d="M0 0 C0.66 0.33 1.32 0.66 2 1 C1.67 2.65 1.34 4.3 1 6 C-0.32 6.33 -1.64 6.66 -3 7 C-2.67 6.34 -2.34 5.68 -2 5 C-2.99 4.34 -3.98 3.68 -5 3 C-4.34 3 -3.68 3 -3 3 C-2.67 2.34 -2.34 1.68 -2 1 C-1.67 1.33 -1.34 1.66 -1 2 C-0.67 1.34 -0.34 0.68 0 0 Z " fill="#9E5198" transform="translate(208,37)"/>
<path d="M0 0 C0 1.98 0 3.96 0 6 C-1.65 6.33 -3.3 6.66 -5 7 C-4.39816251 4.97954558 -3.72693904 2.97888961 -3 1 C-1 0 -1 0 0 0 Z " fill="#7E0F73" transform="translate(39,269)"/>
<path d="M0 0 C0.99 0 1.98 0 3 0 C3.33 1.98 3.66 3.96 4 6 C2.35 6 0.7 6 -1 6 C-0.67 4.02 -0.34 2.04 0 0 Z " fill="#7E1173" transform="translate(209,463)"/>
<path d="M0 0 C1.65 0 3.3 0 5 0 C5 1.32 5 2.64 5 4 C3.35 4 1.7 4 0 4 C0 2.68 0 1.36 0 0 Z " fill="#A2559A" transform="translate(22,245)"/>
<path d="M0 0 C0 0.33 0 0.66 0 1 C-1.670625 1.309375 -1.670625 1.309375 -3.375 1.625 C-7.26599195 2.61628301 -7.26599195 2.61628301 -8.4375 6.125 C-8.623125 7.07375 -8.80875 8.0225 -9 9 C-9.33 9 -9.66 9 -10 9 C-10.1875 5.625 -10.1875 5.625 -10 2 C-6.3558226 -0.4294516 -4.28758728 -0.16179575 0 0 Z " fill="#B071AB" transform="translate(37,223)"/>
<path d="M0 0 C1.32 0.33 2.64 0.66 4 1 C4 1.99 4 2.98 4 4 C3.01 3.67 2.02 3.34 1 3 C0.67 3.66 0.34 4.32 0 5 C-0.66 4.67 -1.32 4.34 -2 4 C-1.34 2.68 -0.68 1.36 0 0 Z " fill="#7F1174" transform="translate(425,115)"/>
<path d="M0 0 C1.134375 0.020625 2.26875 0.04125 3.4375 0.0625 C3.4375 0.7225 3.4375 1.3825 3.4375 2.0625 C1.4575 2.7225 -0.5225 3.3825 -2.5625 4.0625 C-2.5625 3.4025 -2.5625 2.7425 -2.5625 2.0625 C-3.2225 1.7325 -3.8825 1.4025 -4.5625 1.0625 C-3.5625 0.0625 -3.5625 0.0625 0 0 Z " fill="#86227C" transform="translate(104.5625,83.9375)"/>
<path d="M0 0 C-0.99 0.66 -1.98 1.32 -3 2 C-3.33 2.99 -3.66 3.98 -4 5 C-4.99 4.67 -5.98 4.34 -7 4 C-6.67 2.68 -6.34 1.36 -6 0 C-2.25 -1.125 -2.25 -1.125 0 0 Z " fill="#AE6CA7" transform="translate(44,168)"/>
<path d="M0 0 C0.99 0.33 1.98 0.66 3 1 C2.67 1.99 2.34 2.98 2 4 C2.66 4.33 3.32 4.66 4 5 C2.68 5.99 1.36 6.98 0 8 C0 7.34 0 6.68 0 6 C-0.66 5.67 -1.32 5.34 -2 5 C-1.34 4.34 -0.68 3.68 0 3 C0 2.01 0 1.02 0 0 Z " fill="#9F629A" transform="translate(441,149)"/>
<path d="M0 0 C1.65 0 3.3 0 5 0 C4.67 1.65 4.34 3.3 4 5 C2 3.625 2 3.625 0 2 C0 1.34 0 0.68 0 0 Z " fill="#96418E" transform="translate(204,458)"/>
</svg>
