<?xml version="1.0" encoding="utf-8" ?>
<svg baseProfile="full" height="1200px" version="1.1" width="800px" xmlns="http://www.w3.org/2000/svg" xmlns:ev="http://www.w3.org/2001/xml-events" xmlns:xlink="http://www.w3.org/1999/xlink"><defs><radialGradient cx="50%" cy="50%" id="radialGrad" r="75%"><stop offset="0" stop-color="purple" stop-opacity="0.8" /><stop offset="1" stop-color="skyblue" stop-opacity="0.8" /></radialGradient><linearGradient id="grad0" x1="0%" x2="100%" y1="0%" y2="0%"><stop offset="0" stop-color="rgb(50, 50, 150)" /><stop offset="1" stop-color="rgb(100, 150, 200)" /></linearGradient><linearGradient id="grad1" x1="0%" x2="100%" y1="0%" y2="0%"><stop offset="0" stop-color="rgb(75, 50, 150)" /><stop offset="1" stop-color="rgb(125, 150, 200)" /></linearGradient><linearGradient id="grad2" x1="0%" x2="100%" y1="0%" y2="0%"><stop offset="0" stop-color="rgb(100, 50, 150)" /><stop offset="1" stop-color="rgb(150, 150, 200)" /></linearGradient><linearGradient id="grad3" x1="0%" x2="100%" y1="0%" y2="0%"><stop offset="0" stop-color="rgb(125, 50, 150)" /><stop offset="1" stop-color="rgb(175, 150, 200)" /></linearGradient><linearGradient id="grad4" x1="0%" x2="100%" y1="0%" y2="0%"><stop offset="0" stop-color="rgb(150, 50, 150)" /><stop offset="1" stop-color="rgb(200, 150, 200)" /></linearGradient><linearGradient id="grad5" x1="0%" x2="100%" y1="0%" y2="0%"><stop offset="0" stop-color="rgb(175, 50, 150)" /><stop offset="1" stop-color="rgb(225, 150, 200)" /></linearGradient><linearGradient id="grad6" x1="0%" x2="100%" y1="0%" y2="0%"><stop offset="0" stop-color="rgb(200, 50, 150)" /><stop offset="1" stop-color="rgb(250, 150, 200)" /></linearGradient><linearGradient id="grad7" x1="0%" x2="100%" y1="0%" y2="0%"><stop offset="0" stop-color="rgb(225, 50, 150)" /><stop offset="1" stop-color="rgb(275, 150, 200)" /></linearGradient></defs><rect fill="url(#radialGrad)" height="1200px" width="800px" x="0" y="0" /><rect fill="url(#grad0)" height="30" rx="10" ry="10" width="200" x="300" y="150" /><text fill="white" font-family="Arial" font-size="20px" style="font-weight:bold" x="520" y="170">Citizen Control</text><rect fill="url(#grad1)" height="30" rx="10" ry="10" width="200" x="300" y="270" /><text fill="white" font-family="Arial" font-size="20px" style="font-weight:bold" x="520" y="290">Delegated Power</text><rect fill="url(#grad2)" height="30" rx="10" ry="10" width="200" x="300" y="390" /><text fill="white" font-family="Arial" font-size="20px" style="font-weight:bold" x="520" y="410">Partnership</text><rect fill="url(#grad3)" height="30" rx="10" ry="10" width="200" x="300" y="510" /><text fill="white" font-family="Arial" font-size="20px" style="font-weight:bold" x="520" y="530">Placation</text><rect fill="url(#grad4)" height="30" rx="10" ry="10" width="200" x="300" y="630" /><text fill="white" font-family="Arial" font-size="20px" style="font-weight:bold" x="520" y="650">Consultation</text><rect fill="url(#grad5)" height="30" rx="10" ry="10" width="200" x="300" y="750" /><text fill="white" font-family="Arial" font-size="20px" style="font-weight:bold" x="520" y="770">Informing</text><rect fill="url(#grad6)" height="30" rx="10" ry="10" width="200" x="300" y="870" /><text fill="white" font-family="Arial" font-size="20px" style="font-weight:bold" x="520" y="890">Therapy</text><rect fill="url(#grad7)" height="30" rx="10" ry="10" width="200" x="300" y="990" /><text fill="white" font-family="Arial" font-size="20px" style="font-weight:bold" x="520" y="1010">Manipulation</text><path d="M 300 150 C 250 600, 350 600, 300 1050" fill="none" stroke="white" stroke-width="5" /><path d="M 500 150 C 450 600, 550 600, 500 1050" fill="none" stroke="white" stroke-width="5" /></svg>